<?xml version="1.0" encoding="UTF-8" standalone="no"?>
<!DOCTYPE svg PUBLIC "-//W3C//DTD SVG 20010904//EN" "http://www.w3.org/TR/2001/REC-SVG-20010904/DTD/svg10.dtd">
<svg version="1.0" xmlns="http://www.w3.org/2000/svg" width="731.000000pt" height="731.000000pt" viewBox="0 0 731.000000 731.000000" preserveAspectRatio="xMidYMid meet">
<metadata>
Created by potrace 1.16, written by Peter Selinger 2001-2019
</metadata>
<g transform="translate(0.000000,731.000000) scale(0.100000,-0.100000)" fill="#000000" stroke="none">
<path d="M5551 6609 c-34 -4 -52 -15 -81 -45 -36 -39 -36 -39 -30 -109 4 -38 3 -72 -2 -73 -4 -2 -6 -8 -3 -13 9 -13 -45 -23 -57 -11 -13 13 -54 -6 -111 -51 -43 -34 -105 -42 -149 -21 -37 19 -118 8 -112 -15 3 -9 -2 -7 -12 7 -18 24 -43 29 -61 11 -14 -14 -5 -49 13 -49 32 0 5 -97 -38 -137 -12 -12 -35 -25 -50 -28 -31 -8 -34 -16 -17 -47 22 -41 -1 -27 -31 20 -18 27 -42 55 -54 62 -19 12 -20 12 -7 -4 16 -19 6 -35 -11 -18 -7 7 -22 12 -34 12 -12 0 -24 4 -26 8 -4 12 -106 82 -118 82 -5 0 -10 4 -10 10 0 13 -75 60 -95 60 -8 0 -23 8 -33 18 -52 52 -139 92 -227 105 l-39 6 32 -19 c37 -23 41 -30 12 -23 -11 3 -29 16 -39 29 -12 16 -29 24 -49 24 -16 0 -35 6 -41 14 -23 27 -244 116 -288 116 -21 0 -15 -20 10 -30 12 -5 16 -9 9 -9 -7 -1 -30 8 -50 18 -50 26 -102 41 -140 41 -17 0 -43 5 -57 10 -46 18 -333 29 -357 14 -14 -9 -172 -51 -193 -52 -59 -2 -145 -16 -135 -22 19 -12 -31 -20 -52 -9 -11 6 -18 6 -18 0 0 -5 -19 -12 -42 -15 -115 -17 -202 -60 -272 -135 -17 -17 -35 -31 -41 -31 -7 0 -25 -7 -41 -15 -16 -8 -59 -21 -94 -30 -108 -25 -169 -45 -176 -56 -4 -7 1 -9 12 -6 11 3 39 9 64 13 39 6 43 5 32 -9 -7 -8 -29 -18 -50 -22 -20 -4 -65 -20 -100 -36 -48 -23 -62 -34 -58 -46 4 -9 -5 -30 -19 -49 -19 -24 -22 -34 -12 -34 8 0 17 7 20 15 8 19 116 50 129 37 7 -7 -3 -17 -32 -32 -23 -12 -61 -41 -84 -66 -23 -24 -45 -44 -49 -44 -3 0 -8 10 -10 23 -4 21 -4 21 -6 1 0 -12 -8 -27 -16 -34 -8 -7 -15 -18 -15 -26 0 -17 -48 -51 -86 -60 -16 -4 -32 -12 -36 -18 -4 -6 -23 -12 -43 -12 -49 -2 -53 -10 -10 -18 37 -7 42 -15 23 -34 -20 -20 -1 -25 26 -7 28 18 36 6 11 -15 -9 -7 -13 -20 -10 -29 2 -9 0 -23 -5 -31 -7 -11 -10 -7 -10 18 0 60 -29 12 -41 -70 -6 -40 -15 -83 -20 -96 -5 -13 -9 -35 -9 -50 0 -43 -11 -72 -27 -72 -8 0 -12 3 -10 8 3 4 -35 8 -83 9 -67 1 -105 8 -161 28 -41 15 -96 34 -124 42 -28 8 -61 27 -75 43 -30 33 -76 50 -137 50 -30 0 -45 -5 -49 -15 -4 -8 -18 -15 -34 -15 -16 0 -31 -6 -33 -12 -4 -10 -8 -10 -14 -2 -4 6 -26 14 -48 17 -60 8 -129 27 -135 38 -4 5 -22 2 -46 -8 -30 -13 -45 -29 -64 -67 -26 -51 -113 -122 -162 -132 -66 -13 -172 -23 -249 -22 -47 0 -114 -6 -150 -15 -35 -9 -79 -18 -96 -19 l-33 -2 1 -956 c0 -580 4 -946 9 -932 5 12 17 22 26 22 9 0 38 20 66 44 27 25 55 43 62 40 8 -3 29 8 47 24 40 35 150 92 177 92 11 0 25 7 32 15 7 8 18 15 25 15 7 0 18 6 24 14 6 8 22 16 34 19 12 3 42 11 67 17 165 41 266 46 330 14 43 -22 51 -42 40 -106 -14 -88 -33 -124 -79 -148 -23 -11 -41 -25 -41 -31 0 -6 -6 -9 -13 -6 -7 3 -35 -11 -62 -30 -122 -84 -188 -123 -211 -123 -6 0 -19 -9 -29 -20 -10 -11 -21 -17 -26 -15 -12 8 -86 -71 -93 -98 -3 -14 -14 -27 -23 -29 -10 -3 -24 -18 -32 -34 -7 -16 -17 -36 -22 -44 -5 -8 -12 -22 -15 -30 -3 -8 -10 -22 -15 -30 -5 -8 -13 -25 -19 -37 -5 -12 -21 -40 -35 -62 -14 -23 -25 -55 -25 -73 1 -18 0 -40 0 -48 -3 -36 10 -85 29 -104 89 -95 112 -116 156 -142 44 -25 98 -49 130 -58 23 -5 121 -38 140 -46 23 -10 176 -55 217 -64 16 -4 28 -11 28 -16 0 -5 18 -14 41 -20 l40 -11 -6 -44 c-8 -61 -12 -70 -41 -85 -13 -7 -24 -19 -24 -26 0 -6 -12 -15 -27 -19 -15 -3 -40 -18 -56 -31 -19 -16 -40 -24 -57 -22 -15 1 -34 -3 -41 -9 -10 -8 -29 -8 -64 -1 -27 5 -62 10 -77 11 -16 1 -28 5 -28 8 0 3 -19 12 -42 19 -24 8 -50 19 -58 26 -8 7 -28 16 -45 20 -16 4 -41 13 -55 20 -35 19 -192 64 -202 58 -10 -7 -108 44 -108 56 0 6 -5 10 -11 10 -7 0 -18 8 -25 17 -11 15 -13 -39 -14 -334 l0 -352 104 0 c58 -1 115 -5 128 -11 60 -25 479 -30 818 -10 14 1 37 -1 51 -5 18 -5 31 -2 43 10 14 14 19 15 33 4 9 -8 26 -12 38 -11 14 2 25 -3 29 -14 5 -12 13 -14 34 -9 40 10 154 7 161 -4 6 -9 33 -18 72 -25 58 -9 216 -51 227 -59 14 -11 24 -13 102 -21 25 -3 63 -11 85 -19 26 -9 91 -14 185 -15 181 -2 279 -10 350 -27 94 -23 162 -31 245 -30 l80 1 -4 58 c-2 32 -14 91 -28 130 -14 39 -27 79 -28 88 -6 27 24 22 37 -7 6 -14 16 -25 22 -25 12 0 36 -45 36 -68 0 -7 4 -11 8 -8 13 8 62 -99 62 -136 0 -10 7 -21 15 -24 8 -4 15 -13 15 -21 0 -8 9 -26 20 -41 13 -16 17 -29 11 -35 -12 -12 6 -54 26 -61 11 -5 11 -1 -2 16 -8 13 -15 28 -15 35 0 19 51 5 67 -18 18 -25 109 -79 133 -79 12 0 37 -7 58 -16 20 -9 48 -17 62 -18 85 -10 129 -20 124 -28 -4 -6 2 -7 15 -3 18 6 21 2 22 -27 1 -23 3 -26 6 -10 5 27 23 29 23 2 0 -22 -1 -22 54 -25 27 -2 44 -9 56 -25 16 -21 17 -21 34 -4 14 14 19 15 26 4 7 -11 11 -11 24 -1 28 23 36 6 11 -23 -13 -16 -22 -33 -19 -37 8 -13 32 -11 36 3 8 23 40 -20 34 -44 -3 -13 -3 -17 0 -10 6 14 45 35 84 47 20 6 23 5 13 -6 -18 -18 -16 -29 5 -29 26 0 33 10 22 30 -12 22 9 42 61 60 26 9 35 18 32 30 -7 25 23 46 42 30 19 -16 30 8 21 50 -4 21 -2 30 8 30 18 0 47 34 49 58 0 11 6 18 12 16 21 -9 175 87 175 109 0 4 -7 7 -15 7 -12 0 -13 4 -6 18 18 34 70 84 80 78 5 -4 15 3 21 14 6 11 14 19 18 17 13 -4 154 141 148 152 -8 13 25 68 53 87 30 21 27 36 -5 23 -30 -11 -43 -4 -26 13 7 7 12 18 12 26 0 7 27 38 60 68 42 40 63 67 70 95 6 23 20 43 33 50 37 19 76 60 70 75 -6 15 31 67 41 57 3 -3 6 0 7 8 2 43 7 60 21 76 24 27 70 132 63 143 -4 6 -2 25 4 43 6 17 12 49 13 70 1 21 6 41 10 43 14 9 8 24 -9 24 -14 1 -11 6 10 22 22 16 25 23 15 29 -8 6 -9 9 -1 9 6 0 9 8 6 18 -3 12 4 22 21 30 20 9 26 19 26 45 0 18 -5 38 -12 45 -9 9 -9 15 0 24 7 7 12 27 12 45 0 23 5 33 15 33 18 0 19 12 4 27 -14 14 -20 124 -7 140 5 7 5 14 -2 18 -17 10 -11 25 8 18 16 -6 16 -5 0 14 -25 28 -24 56 2 48 16 -5 20 -2 20 18 0 28 -22 41 -39 24 -8 -8 -11 -8 -11 1 0 7 3 12 8 12 4 0 8 27 9 60 1 33 -2 60 -5 60 -9 0 -43 -95 -48 -135 -3 -16 -7 -49 -10 -73 -3 -25 -9 -40 -15 -36 -7 4 -8 26 -4 56 12 86 12 126 -2 144 -16 22 -25 13 -28 -27 -2 -17 -9 -35 -16 -40 -11 -7 -12 -12 -1 -29 15 -24 16 -33 2 -25 -5 3 -10 1 -10 -4 0 -6 5 -11 11 -11 6 0 9 -10 7 -22 -2 -16 -9 -22 -23 -20 -18 2 -18 2 -2 -8 20 -13 22 -41 5 -58 -8 -8 -8 -15 -1 -24 6 -7 8 -28 6 -46 l-5 -33 -14 27 c-8 14 -14 37 -14 50 0 12 -5 26 -11 29 -7 5 -10 48 -8 119 1 62 0 117 -3 122 -3 5 -9 24 -13 42 -10 48 -20 39 -20 -20 0 -33 -4 -52 -11 -51 -12 2 -10 -85 2 -144 4 -22 3 -33 -5 -33 -6 0 -11 -12 -11 -27 0 -22 -2 -25 -10 -13 -8 13 -10 12 -10 -3 0 -10 -4 -15 -10 -12 -5 3 -10 1 -10 -4 0 -6 -5 -11 -10 -11 -7 0 -8 18 -4 50 8 60 0 88 -20 71 -9 -8 -12 -25 -9 -55 3 -24 0 -52 -6 -63 -6 -13 -7 -31 -2 -51 11 -36 4 -47 -15 -27 -10 9 -12 27 -8 59 6 38 4 46 -10 46 -13 0 -16 11 -16 55 0 33 -4 55 -11 55 -7 0 -8 -11 -4 -31 5 -24 4 -30 -6 -27 -21 7 -23 63 -3 82 12 13 14 20 5 29 -6 6 -12 8 -12 4 -1 -4 -2 -10 -3 -14 -3 -15 -56 -66 -62 -60 -3 3 -6 23 -6 44 0 21 -3 32 -5 25 -3 -6 -9 -10 -14 -6 -10 6 -6 -52 4 -63 4 -3 7 -19 7 -34 0 -23 -3 -26 -22 -22 -13 3 -27 9 -33 13 -5 5 -23 7 -38 5 -23 -3 -26 -1 -16 11 10 12 9 13 -4 8 -11 -4 -16 1 -19 18 -2 12 -11 24 -21 26 -15 3 -17 -1 -11 -25 3 -15 13 -41 21 -58 8 -18 10 -31 4 -33 -6 -2 0 -20 14 -40 17 -26 24 -51 24 -84 -1 -26 2 -52 5 -57 4 -5 2 -12 -4 -16 -10 -6 -14 7 -11 33 2 14 -36 102 -43 102 -3 0 -4 -28 -3 -62 1 -43 -2 -62 -9 -61 -8 2 -12 -20 -11 -67 1 -78 -5 -90 -34 -72 -18 12 -21 11 -26 -7 -9 -36 -23 -23 -23 23 0 25 -6 48 -14 55 -11 9 -15 3 -21 -31 -5 -24 -9 -47 -10 -53 0 -5 -8 -23 -18 -40 -14 -26 -16 -27 -17 -9 0 12 -7 24 -15 27 -8 4 -26 28 -40 54 -25 47 -26 47 -20 13 4 -19 9 -55 12 -80 3 -25 13 -56 23 -70 9 -14 26 -50 37 -80 11 -30 24 -63 28 -72 7 -17 -8 -24 -38 -19 -4 1 -10 -6 -14 -15 -5 -13 -9 -9 -17 16 -12 35 -29 42 -34 13 -3 -15 -1 -16 8 -3 9 12 10 8 6 -20 -4 -18 -12 -37 -18 -41 -17 -11 -40 26 -37 59 1 15 -1 38 -5 51 -8 22 -9 23 -18 7 -9 -16 -11 -15 -24 9 -8 15 -11 31 -8 36 3 5 -2 19 -10 31 -23 32 -20 45 4 17 16 -20 19 -21 20 -7 0 9 -5 20 -11 24 -6 4 -9 19 -5 38 5 28 4 29 -8 13 -12 -15 -14 -16 -20 -2 -8 21 3 45 19 39 9 -4 12 6 11 37 0 24 -6 44 -13 47 -7 2 -13 -1 -13 -8 0 -6 -5 -8 -10 -5 -6 4 -7 11 -4 17 4 7 2 8 -4 4 -6 -3 -11 -32 -11 -64 0 -70 -6 -98 -25 -117 -8 -9 -13 -22 -9 -30 3 -9 0 -22 -7 -30 -6 -8 -9 -19 -6 -24 4 -5 -3 -16 -14 -24 -12 -8 -20 -18 -19 -23 6 -36 -15 -46 -37 -16 -11 14 -12 9 -8 -37 3 -31 0 -59 -7 -67 -6 -7 -8 -17 -5 -22 7 -11 -22 -90 -41 -113 -7 -8 -13 -27 -13 -41 0 -14 -7 -31 -15 -38 -17 -14 -21 0 -4 17 14 14 1 36 -17 29 -8 -3 -14 1 -14 8 0 7 -6 19 -14 25 -11 9 -18 6 -35 -15 -17 -22 -23 -24 -36 -14 -12 10 -15 10 -15 -3 0 -9 5 -19 11 -22 22 -14 4 -39 -30 -41 -18 -1 -37 -8 -42 -15 -7 -12 -9 -12 -9 0 0 9 -9 4 -25 -13 -13 -14 -29 -26 -35 -26 -5 0 -10 -10 -10 -22 0 -17 -3 -19 -9 -9 -5 8 -14 10 -22 6 -9 -6 -11 -3 -6 9 4 11 3 15 -4 10 -6 -3 -9 -19 -7 -35 3 -16 1 -29 -4 -29 -4 0 -8 9 -8 20 0 17 -4 18 -25 10 -23 -9 -29 -6 -26 12 2 13 -17 9 -22 -4 -3 -10 -12 -9 -35 3 -31 18 -52 10 -52 -19 0 -7 -5 -10 -10 -7 -6 4 -8 15 -5 26 4 10 3 19 -2 19 -12 0 -57 -32 -66 -47 -11 -18 -41 -17 -33 2 7 20 -18 20 -38 0 -18 -19 -27 -19 -20 -1 8 21 -11 27 -32 11 -15 -11 -16 -17 -6 -23 9 -6 10 -15 3 -33 -10 -24 -10 -24 -10 -1 -1 12 -5 22 -11 22 -5 0 -10 7 -10 15 0 8 -5 15 -10 15 -6 0 -15 10 -20 23 -6 16 -9 18 -9 5 -1 -10 -15 -31 -31 -48 l-30 -31 0 28 c0 26 -1 26 -15 7 -8 -10 -15 -15 -15 -10 0 5 -7 3 -16 -5 -20 -16 -34 2 -34 44 0 16 -7 35 -15 43 -13 13 -15 13 -15 1 0 -14 -86 -64 -95 -55 -3 3 1 24 9 46 14 39 14 42 -4 52 -13 7 -20 21 -20 40 0 17 -5 30 -11 30 -6 0 -9 -6 -6 -14 3 -7 -7 -25 -22 -40 -32 -31 -46 -34 -31 -7 18 34 12 44 -21 37 -26 -5 -29 -4 -20 8 8 10 8 21 1 41 -6 15 -7 32 -3 38 4 6 0 8 -10 4 -24 -9 -21 12 6 33 l22 19 -33 34 c-20 20 -30 40 -27 49 4 9 0 18 -9 21 -9 4 -16 13 -16 22 0 8 -4 15 -9 15 -6 0 -8 9 -6 19 6 30 -6 61 -22 61 -13 0 -13 3 -2 16 10 13 10 17 -2 24 -7 5 -14 15 -15 22 -3 39 -4 39 -34 18 -16 -12 -30 -17 -30 -11 0 6 5 11 11 11 5 0 7 5 4 10 -4 6 -3 9 2 8 16 -4 53 23 53 39 0 13 -3 14 -12 5 -7 -7 -18 -12 -26 -12 -10 0 -8 8 7 29 25 35 26 41 6 41 -9 0 -21 -12 -28 -27 -6 -16 -14 -30 -18 -33 -6 -5 -22 -42 -22 -50 0 -3 3 -24 7 -47 5 -36 4 -43 -11 -43 -13 0 -14 -3 -6 -11 8 -8 8 -18 1 -35 -17 -37 -26 -28 -20 21 4 37 2 44 -10 40 -8 -3 -21 1 -28 10 -7 8 -19 15 -26 15 -13 0 -17 16 -16 65 1 17 0 17 -4 3 -3 -10 -10 -18 -15 -18 -6 0 -8 8 -5 18 2 9 7 27 11 39 5 17 3 22 -8 18 -8 -4 -14 0 -14 10 0 8 4 15 9 15 4 0 8 8 8 18 0 14 2 15 10 2 6 -10 9 -2 8 28 0 43 -18 72 -18 30 0 -17 -2 -20 -9 -9 -5 8 -7 20 -4 28 3 8 -1 21 -9 31 -9 9 -18 24 -21 32 -4 12 -6 11 -6 -2 -1 -27 -20 -22 -27 7 -3 14 -10 22 -16 19 -5 -3 -4 -11 3 -20 6 -7 9 -20 6 -29 -4 -8 0 -18 7 -22 27 -16 36 -48 20 -71 -9 -13 -12 -31 -8 -47 4 -15 2 -25 -5 -25 -6 0 -11 6 -12 13 0 6 -4 3 -9 -8 -6 -15 -9 -5 -10 35 -1 36 -4 48 -9 36 -7 -18 -8 -18 -14 -3 -4 11 1 25 15 39 14 14 18 23 10 26 -7 2 -12 13 -12 25 0 30 -18 8 -22 -28 l-4 -30 -13 30 c-7 17 -14 42 -15 57 -1 15 -5 30 -9 34 -12 13 -8 24 8 18 8 -4 15 -1 15 5 0 6 4 11 10 11 5 0 9 -3 9 -7 -5 -33 17 -46 27 -18 4 9 -3 23 -15 34 -14 12 -19 25 -15 37 6 17 5 17 -13 -1 -11 -12 -23 -27 -26 -35 -3 -9 -6 -5 -6 11 -1 14 4 30 10 36 12 12 3 89 -12 98 -5 4 -6 -1 -3 -9 3 -9 1 -16 -6 -16 -6 0 -9 -4 -6 -9 4 -5 2 -20 -3 -33 -10 -23 -10 -23 -10 4 -1 26 -17 46 -28 35 -3 -4 0 -20 6 -37 9 -28 9 -31 -5 -26 -9 3 -17 6 -19 6 -2 0 -1 23 2 50 4 34 2 50 -6 50 -6 0 -11 7 -11 15 0 8 -4 15 -10 15 -5 0 -10 23 -10 50 0 53 -23 218 -41 298 -10 44 -11 143 -4 322 1 41 -2 101 -8 133 -11 58 2 200 23 266 5 14 12 44 16 66 9 55 15 323 9 363 -5 28 -8 31 -25 22 -27 -14 -26 -1 4 91 13 41 32 105 41 142 15 65 23 86 74 202 40 91 46 100 98 152 66 65 95 79 208 100 17 3 37 12 46 19 13 12 307 57 354 55 6 0 70 -1 144 -2 l133 -1 33 33 c31 32 77 60 155 92 19 8 61 15 93 15 75 0 159 12 173 23 6 5 33 10 60 10 27 1 61 6 77 11 18 7 31 7 40 0 7 -6 18 -7 26 -2 8 4 19 6 25 4 19 -7 291 -31 304 -26 10 3 10 7 0 20 -11 13 -7 14 37 8 l50 -8 -24 26 c-22 24 -18 39 5 16 5 -5 25 -11 44 -12 34 -3 35 -2 32 30 -4 36 0 39 22 16 23 -23 83 -30 104 -12 11 10 44 15 95 17 66 2 83 -1 115 -21 33 -21 35 -23 15 -26 -27 -4 -31 -22 -5 -22 22 0 90 -62 85 -77 -4 -11 47 -53 64 -53 6 0 10 -16 11 -36 1 -27 11 -47 42 -80 22 -24 41 -49 41 -56 1 -7 3 -26 6 -43 2 -16 5 -45 5 -63 1 -21 4 -28 10 -20 5 9 8 6 8 -9 0 -16 4 -21 15 -17 9 4 15 0 15 -8 0 -8 9 -25 20 -38 23 -27 24 -35 9 -79 -8 -23 -8 -35 0 -44 7 -9 8 -24 1 -48 -12 -41 -12 -39 -1 -39 5 0 12 14 16 30 9 42 27 38 23 -5 -1 -20 3 -39 9 -43 12 -7 6 -62 -6 -62 -4 0 -16 7 -27 15 -10 8 -26 14 -34 15 -10 0 -11 -3 -4 -8 16 -10 26 -60 14 -67 -5 -3 -10 1 -10 9 0 8 -4 18 -10 21 -17 11 -11 -20 8 -41 10 -11 22 -33 26 -49 4 -15 16 -40 27 -53 20 -26 26 -58 9 -47 -18 11 -10 -7 17 -39 23 -27 26 -28 21 -8 -4 12 -2 20 3 16 5 -3 9 -14 9 -25 0 -11 5 -17 10 -14 6 4 10 -6 10 -24 0 -17 11 -42 26 -61 23 -27 27 -40 26 -93 -1 -62 28 -193 36 -167 5 15 27 40 35 40 10 0 17 -53 9 -63 -11 -14 -3 -127 8 -127 5 0 11 19 15 43 6 32 17 50 46 75 22 19 36 39 33 46 -3 8 -1 17 5 21 6 3 11 -1 11 -9 0 -9 5 -16 10 -16 6 0 10 4 10 8 0 4 26 23 58 42 70 42 86 57 72 65 -16 10 -13 58 3 52 11 -4 12 3 5 36 -20 101 -21 107 -8 107 7 0 10 -7 5 -17 -4 -13 -3 -15 5 -7 13 13 14 32 4 102 -6 50 -27 76 -24 30 1 -13 2 -34 1 -48 l-2 -25 -18 22 c-20 24 -17 83 4 83 7 0 15 20 19 50 4 28 10 50 15 50 8 0 33 65 32 85 0 6 9 20 20 32 20 20 20 21 2 31 -17 10 -17 11 0 17 9 4 17 13 17 21 0 11 9 13 39 8 26 -4 46 -1 62 9 28 18 92 26 204 26 96 0 121 -3 160 -19 83 -33 116 -40 147 -32 18 4 56 4 86 -1 35 -6 57 -6 61 1 3 5 39 17 80 26 40 9 89 23 108 31 19 8 47 13 62 10 21 -4 23 -4 6 4 -19 8 -18 10 8 20 18 7 35 8 44 2 10 -5 29 -5 47 0 17 5 74 12 128 15 102 6 246 -14 301 -41 15 -8 34 -12 41 -9 8 3 49 0 92 -6 44 -6 113 -8 157 -4 l77 7 0 453 c0 337 -3 454 -12 454 -6 0 -26 11 -44 25 -18 14 -37 25 -42 25 -14 0 -88 83 -121 138 -45 72 -101 95 -177 73 -23 -6 -46 -3 -90 12 -71 24 -110 55 -139 109 -25 46 -114 108 -156 108 -25 0 -29 -6 -48 -70 -20 -64 -20 -72 -6 -93 8 -13 26 -29 40 -35 14 -6 25 -18 25 -26 0 -8 4 -16 9 -18 10 -3 17 -31 27 -97 3 -26 -2 -42 -23 -69 -47 -61 -85 -90 -173 -128 -47 -20 -103 -44 -125 -54 -81 -36 -146 -44 -256 -31 -82 9 -113 17 -160 43 -56 31 -99 84 -99 122 0 9 -4 16 -10 16 -11 0 -14 98 -4 124 3 8 30 20 62 27 32 7 71 21 87 31 53 32 79 40 113 34 27 -4 86 8 101 20 2 2 -4 15 -14 30 -14 22 -15 28 -4 35 8 5 9 9 3 9 -5 0 -18 6 -28 13 -15 11 -17 17 -7 35 6 12 8 22 3 22 -5 0 -21 18 -36 40 -26 40 -34 80 -16 80 6 0 10 8 10 17 0 9 12 30 28 46 l27 29 -30 24 c-19 15 -44 24 -70 25 -91 3 -133 7 -195 19 -122 21 -165 26 -209 19z m-169 -702 c38 -20 58 -43 58 -70 0 -37 -59 -78 -84 -58 -18 14 -80 25 -72 12 10 -16 2 -13 -22 8 -12 10 -22 26 -22 35 0 9 -4 16 -10 16 -5 0 -10 5 -10 10 0 6 23 10 51 10 39 0 50 3 46 14 -6 15 11 36 29 36 6 0 23 -6 36 -13z m-460 -870 c2 -12 7 -20 13 -17 5 3 13 -13 18 -35 4 -22 11 -53 14 -69 4 -20 2 -27 -6 -22 -7 5 -11 -4 -11 -28 0 -19 -7 -41 -15 -50 -8 -8 -15 -25 -15 -37 0 -12 3 -19 7 -16 12 13 32 -28 33 -67 0 -32 2 -37 14 -26 13 10 13 7 3 -20 l-12 -31 -12 28 c-7 15 -12 37 -13 49 0 11 -6 29 -14 40 -13 18 -15 18 -21 2 -4 -10 0 -24 9 -34 18 -17 13 -36 -8 -28 -16 6 -36 47 -36 74 0 27 11 51 21 44 5 -3 4 7 -1 22 -11 29 -5 64 11 64 7 0 8 13 3 32 -6 29 -5 31 10 19 14 -12 16 -11 16 6 0 10 -5 24 -12 31 -7 7 -12 24 -13 40 0 20 -5 26 -18 24 -9 -2 -17 1 -17 6 0 13 7 18 29 19 13 1 21 -5 23 -20z m-3097 -374 c-4 -16 -3 -25 1 -21 13 14 34 -43 32 -90 -1 -26 2 -72 6 -104 5 -31 5 -77 2 -102 -6 -38 -12 -47 -32 -52 -14 -4 -30 -2 -36 4 -6 6 -17 8 -25 5 -15 -6 -110 20 -153 42 -14 7 -47 16 -75 20 -27 4 -66 11 -86 16 -19 5 -94 13 -165 19 -135 10 -320 33 -414 50 -30 6 -102 11 -160 12 -77 0 -125 7 -180 23 -41 12 -88 23 -103 24 -49 2 -101 38 -91 64 7 18 47 27 68 15 11 -6 21 -4 32 6 10 11 34 16 68 16 29 0 56 3 60 7 8 8 226 11 226 3 0 -3 18 -6 40 -7 22 0 40 3 40 8 0 4 33 8 73 7 39 -1 82 4 93 10 26 14 237 9 304 -6 65 -16 146 -15 163 2 10 11 24 12 58 6 30 -6 63 -5 104 5 70 16 97 16 107 1 5 -6 8 -2 8 10 0 24 8 34 28 34 10 0 12 -7 7 -27z m-293 -2442 l32 -28 -44 -29 c-35 -23 -40 -30 -24 -32 29 -6 42 -22 16 -22 -12 0 -22 -4 -22 -10 0 -5 7 -10 15 -10 18 0 20 -20 3 -20 -7 -1 -3 -9 10 -19 12 -11 18 -21 13 -23 -5 -1 -12 -38 -14 -80 -4 -76 -4 -78 19 -78 14 0 25 -8 29 -20 6 -19 16 -24 43 -21 6 1 12 -2 12 -8 0 -5 -6 -12 -12 -15 -10 -5 -10 -7 0 -12 6 -3 12 -23 12 -44 0 -21 5 -42 10 -45 21 -13 10 -35 -17 -34 -16 0 -62 -2 -104 -6 -41 -4 -128 -4 -193 0 -95 6 -121 11 -133 25 -8 10 -26 30 -40 45 -21 23 -24 33 -16 58 11 39 37 56 62 40 15 -9 24 -8 50 8 17 10 31 25 31 33 0 9 15 17 39 21 41 7 86 46 93 80 2 12 10 19 21 17 9 -2 17 2 17 8 0 5 -9 10 -20 10 -14 0 -20 6 -18 18 2 12 -5 18 -22 20 -46 7 -42 20 12 40 29 12 46 21 37 21 -9 1 -24 19 -34 41 -12 26 -25 40 -37 40 -10 0 -18 7 -18 15 0 8 7 15 16 15 8 0 13 4 10 8 -2 4 21 9 52 10 31 1 58 5 61 7 9 10 21 4 53 -24z"/>
<path d="M3600 4691 c-53 -15 -109 -35 -125 -43 -17 -9 -47 -18 -67 -22 -24 -4 -46 -18 -64 -39 -17 -20 -29 -27 -31 -19 -7 19 -23 14 -23 -7 0 -22 -30 -32 -78 -26 -41 5 -52 -16 -28 -55 12 -21 13 -29 4 -32 -8 -3 -5 -16 11 -41 14 -23 25 -60 28 -97 7 -79 14 -84 133 -108 29 -6 36 -13 40 -37 4 -24 15 -35 55 -54 83 -40 153 -61 238 -74 135 -19 224 -15 310 13 90 29 107 50 44 51 -23 0 -53 2 -67 4 -14 2 -82 4 -153 5 -70 2 -130 7 -133 12 -3 5 -18 14 -32 20 -16 6 -22 12 -14 15 7 3 19 -1 27 -7 12 -10 15 -10 15 0 0 8 23 11 80 8 44 -2 80 -6 80 -10 0 -13 48 -9 56 4 5 8 2 9 -9 5 -10 -3 -17 -2 -17 2 0 13 139 45 180 42 19 -2 49 -8 65 -15 17 -7 43 -9 60 -5 17 4 58 7 91 8 38 1 79 9 105 21 l44 20 -45 0 -45 1 23 18 c31 27 28 34 -13 27 -38 -8 -77 7 -70 27 5 12 -18 29 -114 78 -59 31 -104 40 -226 45 -93 4 -184 12 -238 20 l-38 6 27 29 c15 16 32 29 37 29 5 0 21 8 35 18 30 20 218 76 230 68 10 -6 99 11 135 25 24 10 26 14 14 28 -8 9 -13 21 -10 27 3 8 -15 12 -53 13 -31 0 -63 6 -72 13 -10 9 -60 14 -161 15 -135 2 -153 0 -241 -26z"/>
<path d="M2308 4572 c-18 -2 -25 -8 -22 -17 4 -10 -3 -13 -25 -13 -17 1 -36 -4 -44 -10 -7 -6 -28 -12 -45 -14 -18 -1 -32 -6 -32 -11 0 -5 -7 -6 -16 -3 -8 3 -12 2 -9 -4 3 -6 1 -10 -4 -10 -6 0 -11 5 -11 10 0 26 -40 -13 -46 -45 -3 -20 -12 -35 -20 -35 -21 0 -17 -16 8 -27 l21 -9 -24 -23 c-22 -20 -35 -74 -22 -94 3 -4 24 13 46 39 65 73 108 96 184 98 117 4 233 -30 233 -68 0 -17 -10 -25 -42 -34 -24 -7 -61 -13 -83 -14 -42 -1 -80 -14 -154 -51 -48 -23 -95 -86 -85 -112 5 -11 0 -18 -15 -22 -16 -4 -20 -11 -16 -24 4 -11 2 -19 -6 -19 -8 0 -8 -4 1 -15 17 -20 12 -24 -41 -34 l-44 -9 49 -1 c60 -1 159 16 205 37 35 15 165 21 178 8 4 -3 -5 -18 -20 -31 -23 -22 -35 -25 -106 -25 -44 0 -83 -4 -86 -10 -4 -6 15 -10 50 -10 41 0 56 -3 53 -12 -3 -7 -18 -15 -34 -18 l-29 -6 25 -7 c52 -14 216 -7 296 13 145 37 294 142 335 236 17 37 18 50 9 87 -7 24 -10 80 -8 124 3 70 2 79 -13 76 -9 -3 -36 4 -60 15 -80 36 -133 51 -224 62 -49 6 -106 15 -125 20 -38 10 -139 17 -182 12z"/>
<path d="M7255 4379 c-16 -5 -66 -13 -110 -19 -99 -12 -107 -14 -122 -23 -7 -5 -18 -5 -23 -2 -6 3 -17 0 -25 -9 -8 -8 -50 -22 -93 -32 -42 -9 -85 -21 -94 -25 -15 -8 -97 -21 -308 -50 -36 -5 -85 -13 -110 -18 -25 -6 -81 -13 -125 -15 -44 -3 -116 -11 -160 -17 -44 -6 -90 -11 -102 -10 -20 1 -66 -10 -233 -55 -30 -9 -77 -16 -105 -17 l-50 -2 -2 -80 c-3 -95 -14 -151 -43 -225 -28 -72 -77 -167 -105 -205 -45 -61 -91 -181 -109 -285 -12 -72 -80 -144 -146 -155 -42 -7 -64 -33 -53 -62 8 -20 -25 -15 -36 5 -10 16 -10 16 -11 -1 0 -9 11 -23 25 -29 28 -13 32 -23 11 -31 -19 -7 -33 -114 -18 -137 7 -11 7 -21 1 -27 -6 -6 -5 -62 1 -154 10 -127 14 -206 19 -381 1 -45 2 -48 44 -66 53 -24 72 -50 126 -174 l42 -96 73 -32 c73 -32 123 -79 166 -158 92 -164 176 -264 322 -380 26 -20 55 -52 65 -70 18 -33 76 -74 213 -152 76 -43 244 -117 290 -127 14 -3 28 -11 32 -17 7 -11 11 -12 46 -15 15 -1 15 -3 2 -11 -13 -8 -12 -10 3 -10 11 0 31 -6 45 -14 30 -16 97 -31 125 -28 10 1 51 -7 92 -18 40 -11 93 -19 117 -18 24 1 83 -11 133 -26 130 -41 135 -43 129 -61 -4 -11 1 -15 17 -16 17 -1 19 -3 7 -6 -10 -2 -18 -14 -18 -25 0 -20 1 -20 18 -5 25 23 62 12 62 -19 0 -15 6 -24 15 -24 13 0 15 209 15 1820 0 1450 -3 1820 -12 1819 -7 0 -26 -5 -43 -10z"/>
<path d="M5338 4161 c-61 -39 -113 -92 -126 -130 -10 -27 -9 -31 8 -31 34 0 51 12 71 51 11 22 27 39 36 39 20 0 83 -38 105 -64 10 -12 23 -28 30 -36 7 -8 12 -20 10 -27 -2 -7 2 -13 8 -13 5 0 10 -9 10 -21 0 -35 24 -15 31 24 3 20 4 59 2 86 -10 136 -85 185 -185 122z"/>
<path d="M5142 3850 c-20 -47 -21 -53 -7 -80 8 -16 15 -49 15 -74 0 -42 2 -46 23 -42 12 1 24 11 26 22 2 10 7 24 11 29 4 6 11 35 15 65 6 48 3 60 -17 89 -13 19 -28 36 -34 38 -5 2 -20 -19 -32 -47z"/>
<path d="M3460 3755 c0 -3 11 -28 25 -55 14 -27 25 -63 25 -79 0 -39 -29 -99 -50 -106 -15 -5 -105 -5 -305 -1 -65 1 -207 -8 -335 -20 -69 -7 -123 -33 -117 -56 3 -11 -5 -24 -22 -34 -14 -10 -31 -24 -37 -33 -10 -12 -15 -13 -27 -3 -10 8 -17 9 -21 3 -4 -6 -13 -8 -21 -5 -12 5 -11 12 5 45 11 21 30 44 43 50 29 16 37 28 37 60 0 15 6 44 13 65 28 79 29 94 9 94 -11 0 -30 -8 -43 -19 -13 -10 -42 -24 -63 -31 -26 -8 -68 -41 -125 -97 -47 -47 -95 -93 -106 -102 -21 -18 -23 -20 -86 -126 l-42 -70 11 -80 c16 -115 18 -125 31 -138 6 -6 11 -23 11 -37 0 -15 9 -35 20 -45 11 -10 18 -20 16 -23 -3 -2 1 -11 9 -19 8 -8 15 -23 15 -34 0 -10 4 -19 9 -19 11 0 22 -55 15 -75 -3 -8 -10 -13 -14 -10 -5 3 -12 0 -16 -6 -4 -8 -3 -9 4 -5 7 4 12 4 12 -1 0 -4 11 -9 25 -9 16 -1 39 12 67 39 31 29 37 39 21 35 -20 -5 -20 -5 -4 24 32 57 83 51 161 -22 59 -54 86 -70 168 -96 38 -12 56 -13 65 -6 18 15 70 16 150 2 37 -6 76 -8 85 -4 9 4 53 8 97 9 44 2 114 10 155 20 41 9 104 20 140 24 36 4 87 17 114 29 27 12 55 22 63 22 9 0 36 15 62 34 25 18 66 44 91 58 41 22 47 23 74 10 16 -8 31 -23 33 -33 3 -11 10 -19 16 -19 6 0 18 -7 28 -16 14 -12 22 -13 38 -4 12 6 21 18 21 26 0 9 9 27 20 41 11 14 20 31 20 38 0 7 6 15 14 18 9 4 15 20 14 44 0 21 5 49 10 63 5 14 10 51 11 82 0 30 1 60 2 64 4 15 -25 104 -33 104 -4 0 -8 6 -8 14 0 8 -13 24 -30 37 -16 13 -30 28 -30 32 0 11 -26 37 -38 37 -5 0 -17 10 -28 21 -10 12 -39 35 -64 52 -25 17 -54 41 -65 54 -11 13 -26 23 -33 23 -7 0 -20 8 -30 18 -28 27 -95 71 -152 98 -110 52 -130 60 -130 49z m168 -255 c11 0 46 -25 78 -55 33 -30 62 -54 66 -55 13 0 -5 -40 -18 -40 -8 0 -14 4 -14 8 0 5 -10 8 -22 6 -13 -1 -35 -3 -50 -3 -20 -1 -26 -5 -22 -16 4 -8 3 -22 0 -31 -6 -15 -8 -15 -26 1 -10 9 -24 14 -29 10 -17 -10 -82 17 -76 32 6 17 -33 56 -50 49 -36 -13 -20 23 44 101 l35 42 32 -24 c18 -14 41 -25 52 -25z m-176 -570 l30 -31 29 31 c35 37 44 37 65 5 14 -22 15 -31 4 -70 -11 -39 -16 -45 -40 -45 -15 0 -35 9 -45 20 -17 19 -19 19 -37 3 -24 -22 -94 -20 -119 3 -18 16 -19 16 -19 -3 0 -34 -20 -41 -131 -47 -58 -2 -128 -8 -156 -12 -44 -5 -53 -3 -71 16 -12 14 -22 18 -27 11 -3 -6 -14 -11 -23 -11 -10 0 -34 -8 -55 -19 l-37 -19 -25 54 c-23 49 -34 114 -18 114 3 0 15 -8 26 -17 17 -16 20 -16 30 -2 25 33 49 38 88 19 36 -19 37 -19 54 0 25 28 93 27 129 -1 l26 -20 26 20 c32 25 109 28 141 6 20 -14 25 -14 55 5 45 27 64 25 100 -10z"/>
<path d="M2934 2489 c-16 -10 -36 -16 -45 -14 -9 3 -22 -1 -29 -10 -7 -8 -18 -15 -24 -15 -6 0 -24 -7 -39 -15 -27 -14 -28 -13 -22 6 7 20 6 20 -24 5 -18 -10 -28 -22 -25 -29 3 -8 0 -25 -5 -40 -7 -17 -7 -28 -1 -32 7 -4 6 -13 0 -25 -9 -17 -7 -18 20 -10 27 8 30 6 30 -14 0 -29 18 -46 48 -46 29 0 152 -57 152 -71 0 -6 8 -5 21 2 17 8 23 8 29 -1 5 -8 13 -9 21 -4 21 13 32 12 52 -4 13 -12 17 -12 17 -2 0 7 3 10 7 7 3 -4 12 2 20 13 8 11 19 20 25 20 7 0 3 -6 -8 -14 -27 -21 -9 -32 20 -12 14 8 32 13 40 10 9 -3 16 -1 16 5 0 6 18 14 39 17 22 4 42 13 45 21 4 8 13 13 21 9 8 -3 15 -1 15 5 0 6 4 8 9 5 16 -10 41 5 41 24 0 10 4 20 10 22 5 2 11 15 12 30 1 15 6 24 10 22 4 -3 10 7 14 22 6 21 2 31 -16 46 -12 10 -33 18 -46 18 -13 0 -35 12 -49 27 -14 15 -25 23 -25 17 0 -14 -70 -29 -79 -17 -3 4 -17 14 -29 21 -21 12 -27 11 -44 -5 -12 -10 -23 -13 -24 -8 -2 6 -28 9 -58 7 -34 -3 -64 2 -83 11 -27 14 -32 14 -59 -4z"/>
<path d="M2866 999 c-3 -13 -7 -37 -8 -53 -3 -33 -24 -46 -30 -19 -4 15 -7 13 -18 -10 -10 -20 -10 -33 -3 -50 6 -12 18 -49 28 -82 21 -74 79 -209 106 -247 22 -30 56 -51 102 -62 28 -7 28 -6 13 16 -9 12 -16 30 -16 40 0 10 -3 18 -8 18 -4 0 -12 15 -19 33 -6 17 -25 70 -41 117 -17 47 -43 135 -57 195 -29 118 -41 142 -49 104z"/>
<path d="M2490 440 c-52 -54 -97 -105 -100 -112 -3 -8 -25 -32 -49 -53 -24 -22 -38 -41 -32 -43 16 -5 13 -42 -7 -79 -49 -91 -65 -117 -85 -134 -22 -18 -19 -18 106 -19 121 0 130 1 148 22 55 64 101 205 113 343 3 39 9 94 12 123 4 28 3 52 -2 51 -5 0 -52 -45 -104 -99z"/>
<path d="M2844 392 c-108 -131 -151 -204 -110 -189 18 7 33 -10 38 -42 2 -18 13 -4 48 67 51 103 76 122 148 115 31 -4 42 -2 42 8 -1 27 -29 52 -67 59 -21 4 -45 10 -53 14 -10 4 -26 -7 -46 -32z"/>
<path d="M3190 361 c-19 -10 -54 -22 -77 -26 -24 -4 -43 -11 -43 -16 0 -5 4 -9 9 -9 5 0 11 -9 14 -20 4 -16 14 -20 54 -22 26 0 55 0 63 1 8 1 29 3 47 4 17 1 29 5 26 10 -2 4 3 7 12 7 9 0 13 -4 10 -10 -3 -5 23 -24 59 -41 84 -41 95 -65 70 -146 -10 -32 -25 -65 -33 -73 -13 -13 -6 -15 62 -18 42 -2 111 -2 153 0 l77 3 -129 110 c-71 60 -131 112 -134 115 -3 3 -40 38 -82 78 -83 78 -100 83 -158 53z"/>
</g>
</svg>