<?xml version="1.0" standalone="no"?>
<!DOCTYPE svg PUBLIC "-//W3C//DTD SVG 20010904//EN"
 "http://www.w3.org/TR/2001/REC-SVG-20010904/DTD/svg10.dtd">
<svg version="1.0" xmlns="http://www.w3.org/2000/svg"
 width="450.000000pt" height="448.000000pt" viewBox="0 0 450.000000 448.000000"
 preserveAspectRatio="xMidYMid meet">
<metadata>
Created by potrace 1.10, written by Peter Selinger 2001-2011
</metadata>
<g transform="translate(0.000000,448.000000) scale(0.050000,-0.050000)"
fill="#000000" stroke="none">
<path d="M608 8931 c21 -16 46 -24 57 -18 10 7 9 -7 -4 -31 -12 -23 -29 -42
-37 -42 -21 0 -18 -233 3 -253 9 -10 14 1 10 22 -4 23 6 42 24 46 24 5 29 -10
22 -79 -5 -47 -13 -73 -19 -58 -6 18 -18 8 -34 -30 -35 -85 -18 -114 44 -74
49 33 49 32 43 -26 -4 -33 -18 -56 -32 -53 -14 3 -25 -6 -25 -20 -1 -18 -5
-18 -18 2 -14 22 -20 22 -33 1 -9 -14 -7 -29 5 -33 11 -3 37 -19 58 -34 47
-34 25 -62 -26 -34 -34 18 -38 13 -34 -42 3 -34 -4 -83 -13 -108 -13 -33 -11
-47 6 -47 16 -1 14 -8 -5 -20 -20 -13 -22 -19 -5 -20 35 0 22 -46 -21 -71 -34
-20 -34 -23 5 -58 33 -30 36 -43 17 -66 -13 -15 -25 -57 -27 -92 -6 -107 -8
-116 -29 -103 -28 18 -25 -17 5 -49 20 -21 20 -24 0 -13 -16 9 -26 1 -27 -22
0 -20 -4 -52 -8 -72 -4 -20 6 -41 21 -47 21 -8 22 -16 3 -37 -13 -14 -30 -22
-37 -18 -7 4 -9 -10 -3 -32 6 -22 18 -35 27 -29 9 5 22 0 29 -11 7 -11 -1 -25
-17 -31 -18 -7 -29 -40 -29 -85 -1 -41 -2 -87 -3 -104 -1 -16 2 -73 6 -125 5
-52 0 -95 -10 -95 -11 0 -10 -15 1 -37 14 -25 13 -44 -2 -59 -16 -16 -14 -35
9 -69 30 -46 32 -119 7 -250 -9 -46 -5 -65 13 -65 18 -1 17 -5 -3 -18 -20 -13
-24 -40 -16 -91 7 -41 4 -96 -7 -122 -11 -31 -11 -49 1 -49 12 0 12 -18 0 -49
-10 -28 -22 -97 -27 -155 -5 -59 -20 -133 -33 -166 -14 -33 -27 -91 -30 -130
-3 -38 -1 -59 4 -46 10 27 66 12 66 -17 0 -11 -9 -14 -20 -7 -30 19 -23 -35
11 -79 32 -42 40 -140 10 -122 -11 7 -12 -11 -1 -48 9 -32 12 -78 6 -100 -6
-25 -1 -41 14 -41 14 0 21 -16 15 -39 -7 -27 -2 -35 17 -27 16 5 28 19 28 29
0 11 9 14 20 7 11 -7 20 -4 20 7 0 11 -11 24 -25 30 -15 6 -11 10 10 11 23 1
35 18 35 47 -1 36 -4 39 -20 15 -16 -24 -19 -22 -20 13 0 34 9 41 45 33 33 -7
38 -4 18 10 -16 11 -28 45 -28 77 0 31 -10 70 -22 86 -15 18 -15 24 -1 16 12
-7 21 -1 21 15 0 16 -9 23 -19 16 -13 -8 -15 13 -6 56 8 37 19 118 24 178 6
61 24 140 41 177 24 52 26 79 10 115 -12 25 -14 51 -4 57 9 6 18 63 19 126 1
63 4 284 7 490 3 206 11 375 19 375 16 0 48 173 41 225 -3 19 4 35 15 35 11 0
20 52 20 115 1 82 6 106 20 85 17 -26 19 -25 20 5 0 22 -15 35 -40 35 -35 0
-37 5 -15 40 14 22 28 31 32 19 5 -14 16 -13 35 2 34 29 18 61 -23 46 -21 -8
-29 3 -29 39 0 28 11 55 25 60 20 7 19 18 -1 53 -15 25 -18 40 -8 33 11 -6 25
17 32 51 16 84 15 152 -3 162 -8 5 -5 6 8 3 41 -9 45 89 5 116 -23 16 -39 55
-42 100 -2 40 -11 69 -20 64 -35 -22 -56 15 -34 57 27 50 76 -13 77 -100 1
-25 13 -45 28 -45 17 0 25 18 22 50 -3 28 3 50 13 50 9 0 17 20 16 45 -1 25 4
64 12 87 8 27 1 54 -20 75 -20 20 -24 33 -9 33 13 0 19 11 13 25 -40 99 -41
102 -14 85 20 -13 23 -8 11 22 -9 21 -18 88 -20 148 l-4 110 -149 5 c-134 5
-144 2 -110 -24z"/>
<path d="M4520 8871 c0 -48 -9 -112 -20 -140 -15 -41 -13 -55 9 -63 16 -6 24
-23 18 -38 -6 -17 12 -31 53 -40 78 -17 89 -6 84 79 -3 40 14 103 43 157 59
111 43 134 -91 134 l-96 0 0 -89z"/>
<path d="M6170 8940 c-7 -11 -6 -30 1 -42 21 -34 24 -363 3 -418 -23 -62 -31
-180 -11 -180 8 0 6 -29 -4 -65 -24 -81 -24 -100 -1 -86 10 6 25 -18 32 -54
46 -227 143 -218 147 14 1 78 3 164 4 191 1 28 1 91 -1 140 -2 50 -1 156 0
237 2 80 -2 151 -8 158 -6 6 -4 21 5 33 56 73 44 92 -56 92 -54 0 -104 -9
-111 -20z"/>
<path d="M2573 8818 c-18 -87 -17 -91 16 -91 22 0 28 20 25 76 -5 93 -24 100
-41 15z"/>
<path d="M2276 8757 c-4 -56 -15 -85 -31 -82 -38 8 -30 -30 15 -75 22 -22 40
-51 39 -65 0 -14 -9 -9 -21 10 -20 36 -58 31 -58 -7 0 -11 10 -14 22 -7 15 10
18 0 9 -28 -14 -44 1 -54 43 -27 16 10 20 67 14 183 -9 188 -22 229 -32 98z"/>
<path d="M3024 8783 c-12 -35 -13 -68 -1 -90 32 -56 48 -37 48 57 -1 103 -18
115 -47 33z"/>
<path d="M3246 8742 c-6 -23 -19 -42 -28 -42 -45 0 -11 -36 41 -44 44 -7 61 0
68 28 5 20 1 31 -9 25 -10 -6 -18 2 -18 19 0 48 -42 60 -54 14z"/>
<path d="M4758 8744 c-75 -78 -56 -191 19 -116 29 29 29 36 4 52 -25 15 -24
24 8 59 44 49 15 54 -31 5z"/>
<path d="M8915 8765 c-37 -8 -49 -45 -15 -45 11 0 4 -16 -15 -36 -36 -37 -135
-36 -112 1 7 12 5 16 -6 9 -10 -6 -21 -44 -24 -84 -3 -50 3 -69 18 -60 13 8
11 -4 -5 -29 -19 -31 -20 -46 -3 -57 13 -8 22 -67 22 -137 0 -68 6 -132 13
-143 7 -11 4 -24 -6 -27 -20 -8 -27 -96 -24 -287 2 -85 8 -111 22 -90 11 18
20 20 20 6 0 -13 -14 -37 -31 -55 -18 -17 -24 -31 -15 -31 9 0 -8 -16 -36 -35
-39 -26 -49 -45 -39 -74 10 -26 19 -31 29 -15 16 26 53 33 50 9 -2 -8 -2 -36
0 -61 2 -53 42 -40 42 14 0 51 65 103 117 93 43 -9 44 -5 41 175 -1 101 -1
358 1 571 2 213 1 389 -3 391 -3 3 -22 1 -41 -3z"/>
<path d="M3570 8555 c3 -46 90 -81 90 -36 0 28 40 27 106 -4 63 -29 67 -45 19
-66 -30 -13 -29 -16 13 -27 45 -12 46 -15 15 -46 -22 -22 -26 -38 -12 -47 12
-7 40 6 62 29 22 24 48 38 58 31 44 -27 132 -33 549 -38 418 -5 541 -19 526
-62 -3 -10 11 -22 31 -26 25 -4 33 1 23 17 -10 17 -4 18 23 4 20 -11 88 -34
151 -53 135 -39 179 -81 63 -60 -61 11 -72 9 -54 -11 27 -28 157 -33 281 -10
100 18 183 -4 116 -30 -22 -9 -60 -12 -85 -6 -26 6 -45 1 -45 -12 0 -12 11
-23 25 -23 14 -1 5 -11 -20 -23 -25 -12 -45 -34 -45 -49 0 -36 -48 -34 -122 4
-34 17 -71 28 -84 23 -34 -11 165 -134 217 -134 24 0 108 -26 186 -59 92 -38
143 -50 144 -35 0 13 19 2 42 -26 l42 -50 -51 -10 c-62 -12 -32 -71 36 -73 22
-1 56 -8 75 -16 28 -12 33 -8 22 20 -12 30 -6 33 35 22 26 -7 58 -13 71 -13
12 0 27 -18 33 -40 10 -39 66 -75 86 -54 6 5 -1 29 -15 51 -39 62 -11 70 81
22 95 -50 96 -51 39 -97 l-43 -35 48 -45 c26 -25 99 -81 161 -125 81 -57 116
-96 124 -138 18 -88 53 -71 53 26 0 85 -82 295 -115 295 -10 0 -35 -13 -56
-29 -49 -38 -69 -38 -69 -3 0 15 15 26 32 25 55 -5 85 67 40 94 -20 13 -101
76 -180 141 -142 117 -232 120 -98 3 31 -27 45 -50 32 -50 -34 -1 -139 104
-155 156 -8 24 -24 43 -36 43 -12 0 -38 14 -57 32 -19 17 -51 33 -71 36 -20 3
-36 14 -34 24 5 32 -34 88 -62 88 -15 0 -32 14 -38 30 -7 17 -44 45 -82 64
-39 18 -71 41 -71 49 0 14 -127 77 -155 77 -5 0 1 -13 15 -30 19 -23 19 -30 1
-30 -14 0 -29 16 -34 35 -9 33 -188 125 -242 125 -14 0 -25 8 -25 17 0 10 -38
17 -85 17 -47 -1 -155 10 -240 23 -163 26 -213 19 -175 -27 18 -21 8 -23 -54
-6 -229 59 -388 67 -305 15 47 -29 -10 -23 -122 13 -56 18 -114 26 -134 17
-80 -34 -151 -14 -315 90 -76 48 -110 50 -111 6 0 -33 -1 -33 -21 0 -28 49
-52 44 -48 -10z"/>
<path d="M2940 8520 c-16 -11 -22 -20 -13 -20 10 0 8 -12 -5 -28 -19 -22 -10
-30 47 -41 78 -14 88 -32 40 -72 -25 -21 -43 -20 -101 8 -73 35 -142 42 -198
20 -37 -14 86 -66 156 -67 49 0 134 -59 134 -92 0 -16 -15 -28 -33 -28 -30 0
-29 -4 4 -41 63 -69 4 -105 -137 -83 -99 16 -118 13 -147 -19 -62 -69 -267
-42 -267 35 0 31 92 48 119 21 14 -14 34 -13 66 2 25 12 71 30 104 40 81 24
93 68 15 53 -33 -7 -65 -3 -72 8 -11 19 -71 5 -339 -77 -47 -14 -70 -8 -122
32 l-64 49 3 -45 c2 -25 12 -45 22 -46 39 -2 118 -36 143 -62 16 -15 44 -27
65 -27 59 0 100 -22 100 -53 0 -20 13 -26 40 -18 22 6 57 16 77 21 21 6 49 -3
62 -19 14 -17 34 -26 43 -20 10 6 18 -2 18 -18 0 -17 -16 -34 -35 -39 -23 -6
-17 -10 17 -12 31 -1 70 18 100 50 45 48 45 52 8 48 -73 -8 -112 0 -100 20 16
26 165 26 173 0 5 -13 30 -13 75 -1 37 11 76 15 86 9 10 -7 123 -13 250 -15
166 -2 235 -10 241 -28 6 -17 -17 -25 -72 -25 -44 0 -86 -9 -93 -20 -7 -11
-28 -20 -46 -20 -19 0 -60 -14 -92 -31 -32 -16 -75 -24 -96 -18 -21 7 -51 1
-67 -12 -16 -13 -29 -17 -29 -10 0 8 20 31 45 52 l45 38 -55 0 c-33 1 -95 -30
-160 -79 -58 -44 -123 -81 -145 -82 -34 -2 -32 -5 10 -19 44 -15 42 -16 -20
-13 -80 5 -130 -29 -172 -118 -16 -34 -62 -78 -104 -99 -64 -32 -68 -38 -30
-44 24 -4 70 6 102 23 32 16 77 25 101 19 31 -9 43 -3 43 21 0 18 15 31 35 30
21 -1 25 -5 10 -11 -19 -8 -18 -17 4 -39 36 -36 50 -35 133 6 l68 34 -90 19
c-49 10 -115 19 -145 19 -67 0 -74 49 -10 63 25 6 94 13 154 16 104 5 107 7
73 40 -34 34 -32 37 36 65 82 35 144 38 162 10 19 -31 84 -24 98 11 6 17 19
27 27 23 52 -31 505 35 505 74 0 15 22 32 50 37 64 12 79 -4 35 -38 -33 -24
-32 -27 10 -39 77 -22 50 -42 -85 -68 -125 -24 -190 -57 -115 -58 19 -1 85 -6
145 -12 61 -6 187 -11 280 -12 94 0 219 0 280 0 60 0 114 -7 120 -16 5 -9 69
-26 140 -40 72 -13 156 -29 188 -35 99 -21 41 28 -79 66 -114 36 -139 82 -37
70 78 -9 181 -74 194 -123 6 -23 27 -40 50 -40 21 0 50 -13 64 -30 27 -33 90
-42 70 -11 -6 11 -45 36 -86 55 l-74 36 77 6 c43 4 92 0 110 -8 18 -8 50 -17
71 -19 21 -2 45 -18 55 -34 13 -24 33 -27 91 -14 59 13 83 10 111 -16 57 -51
17 -63 -161 -48 -133 12 -163 9 -155 -12 27 -70 -531 12 -790 116 -39 16 -65
13 -109 -9 -31 -17 -67 -25 -79 -19 -11 5 -4 -4 18 -22 21 -17 30 -31 20 -32
-19 0 157 -87 249 -122 41 -16 45 -14 23 12 -14 16 -56 41 -93 54 -91 33 -94
82 -3 56 36 -11 67 -19 69 -19 3 0 36 -31 75 -70 43 -43 58 -70 40 -70 -43 0
-35 -42 10 -54 22 -6 45 -27 52 -48 6 -21 21 -38 32 -38 10 0 14 -9 7 -20 -19
-30 169 -105 227 -90 39 10 46 6 35 -22 -17 -43 22 -88 75 -88 24 0 70 -17
103 -37 72 -44 231 -65 280 -38 25 14 40 12 51 -7 14 -22 29 -23 80 -4 34 13
75 19 91 13 16 -7 41 -1 57 12 22 18 42 16 90 -9 34 -17 70 -27 79 -21 33 20
40 93 10 104 -40 16 -35 47 8 47 20 0 57 -23 81 -50 l43 -51 58 43 c32 23 68
37 80 29 25 -15 -1 -48 -68 -87 -36 -21 -33 -23 27 -23 52 -1 65 6 56 29 -8
20 1 30 26 30 38 0 70 -31 71 -68 0 -21 73 -51 95 -38 28 16 15 43 -25 56 -22
7 -40 24 -40 38 0 14 -20 44 -45 66 -54 50 -135 78 -135 47 0 -11 -14 -21 -32
-21 -21 0 -28 11 -21 30 27 70 -302 -3 -352 -78 -9 -13 -16 -14 -18 -2 -5 32
-11 77 -14 110 -2 24 -38 30 -188 30 -102 0 -220 11 -263 25 -42 14 -106 25
-142 25 -116 0 -218 49 -425 202 -90 66 -116 116 -40 76 24 -14 89 -36 145
-51 55 -14 71 -22 35 -17 -88 12 -82 -1 24 -50 131 -59 220 -52 136 12 -33 25
-32 27 5 27 81 1 189 -25 178 -42 -6 -10 -29 -13 -50 -6 -77 24 -35 -11 74
-63 62 -29 150 -54 195 -56 46 -1 93 -9 105 -17 28 -18 48 1 48 46 0 43 -35
59 -200 87 -91 16 -130 32 -130 52 0 35 142 32 184 -3 13 -11 42 -14 65 -7 22
7 51 6 63 -1 12 -8 58 -17 101 -20 85 -6 137 -37 137 -82 0 -20 10 -22 35 -9
19 11 52 24 73 31 41 13 -6 91 -56 91 -12 0 -46 20 -76 45 -156 129 -379 267
-362 223 17 -46 -29 -32 -136 41 -91 63 -208 111 -272 111 -13 0 -58 20 -100
44 -50 29 -67 34 -51 13 13 -17 20 -35 15 -40 -5 -6 53 -30 130 -56 119 -38
209 -85 105 -53 -169 51 -379 55 -392 8 -11 -44 -53 -31 -53 15 0 24 -32 28
-180 20 -187 -10 -235 10 -105 45 74 20 73 20 -45 22 -85 2 -111 8 -90 22 17
11 22 20 13 20 -10 0 -8 12 5 28 31 37 1 47 -222 72 -100 12 -218 30 -264 42
-105 26 -147 30 -397 37 -113 3 -189 10 -170 15 32 8 32 13 5 52 -45 65 -36
78 30 44 33 -17 60 -39 60 -50 0 -25 365 -4 382 22 15 25 157 10 219 -23 26
-13 97 -26 160 -29 62 -2 123 -10 135 -17 12 -8 70 -13 128 -11 129 4 276 -32
466 -112 104 -44 170 -56 95 -17 -36 19 -65 45 -65 59 0 13 -38 31 -84 39 -46
8 -118 31 -158 53 -54 28 -127 40 -268 46 -107 4 -200 13 -206 19 -22 22 67
68 116 59 194 -34 632 -57 840 -44 61 4 126 0 146 -10 20 -9 47 -13 60 -8 30
12 -76 57 -156 67 -33 4 -87 17 -120 29 -81 28 -450 49 -450 25 0 -20 -97 -19
-305 3 -89 10 -144 7 -161 -7 -44 -36 -372 -5 -394 38 -13 23 -54 38 -124 46
-58 7 -137 17 -176 23 -58 9 -62 7 -25 -9 25 -11 51 -34 58 -51 6 -16 24 -30
39 -30 15 0 28 -7 28 -16 0 -9 32 -27 70 -41 72 -26 94 -63 38 -63 -18 0 -60
13 -95 28 -35 15 -81 33 -103 39 -189 50 -251 101 -151 123 34 7 61 18 61 23
0 28 -63 67 -107 67 -28 0 -56 9 -63 20 -7 11 -3 20 9 20 11 0 21 14 21 30 0
35 -17 37 -60 10z m1049 -711 c21 -16 62 -30 90 -31 51 -1 51 -1 -7 -22 -48
-18 -63 -15 -82 11 -14 18 -34 33 -46 33 -12 0 -27 9 -34 20 -19 30 35 23 79
-11z m994 -694 c10 -16 22 -16 43 2 24 20 29 16 29 -22 0 -41 -8 -45 -77 -38
-77 7 -101 30 -53 50 15 6 12 10 -9 11 -18 1 -40 12 -48 25 -10 16 3 19 44 8
32 -8 64 -24 71 -36z m546 -46 c55 -41 40 -46 -154 -54 -130 -6 -176 -1 -184
19 -6 17 6 26 35 26 24 0 79 13 122 28 84 29 121 25 181 -19z"/>
<path d="M7691 8262 c-16 -26 22 -102 51 -102 11 0 13 11 5 25 -9 14 -18 37
-20 52 -6 38 -21 49 -36 25z"/>
<path d="M4709 8089 c21 -16 62 -29 90 -29 96 -1 241 -82 181 -102 -48 -15
-48 -16 10 -14 81 2 132 -22 125 -59 -3 -19 16 -37 50 -46 67 -19 70 -7 10 41
-25 20 -39 43 -32 50 22 21 84 -22 127 -89 22 -33 51 -61 65 -61 14 0 41 -16
61 -36 82 -82 128 -103 172 -80 23 13 42 20 42 18 0 -3 38 -13 85 -21 47 -9
85 -13 85 -10 0 54 -48 103 -123 125 -161 49 -468 216 -461 251 3 19 -8 33
-26 33 -18 0 -27 -9 -20 -19 12 -20 -103 13 -140 39 -11 8 -92 20 -180 26
-142 10 -156 8 -121 -17z"/>
<path d="M4700 8003 c0 -27 154 -70 195 -54 52 20 -2 54 -103 66 -60 7 -92 2
-92 -12z"/>
<path d="M4360 7980 c0 -11 -15 -20 -33 -20 -63 0 -17 -16 130 -47 191 -39
235 -22 102 39 -107 50 -199 63 -199 28z"/>
<path d="M1844 7845 c5 -29 30 -35 140 -37 73 -1 161 -13 195 -28 71 -29 100
-14 68 36 -40 65 -415 92 -403 29z"/>
<path d="M6793 7812 c-13 -34 34 -56 80 -38 29 11 29 15 -4 39 -47 34 -62 34
-76 -1z"/>
<path d="M2375 7763 c-9 -36 -3 -39 62 -29 112 18 115 32 11 55 -52 11 -65 6
-73 -26z"/>
<path d="M3305 7739 c-70 -28 -56 -66 18 -51 34 6 71 12 82 12 11 0 9 13 -5
30 -28 34 -33 34 -95 9z"/>
<path d="M6798 7668 c-35 -43 8 -85 51 -49 39 32 39 54 2 68 -15 6 -39 -3 -53
-19z"/>
<path d="M3093 7631 c42 -56 77 -65 94 -22 13 34 5 40 -74 59 l-56 14 36 -51z"/>
<path d="M2047 7630 c-6 -16 -28 -30 -48 -30 -52 0 -99 -21 -99 -44 0 -12 22
-15 50 -8 28 7 50 8 50 3 0 -16 -85 -57 -129 -61 -60 -7 -59 -7 -87 -51 -25
-40 -24 -40 34 -10 33 17 81 32 106 32 55 2 260 95 213 97 -17 1 -44 17 -60
36 -15 18 -17 27 -4 20 28 -17 87 3 87 28 0 31 -101 20 -113 -12z"/>
<path d="M2400 7610 c0 -22 -23 -30 -91 -30 -53 0 -86 -8 -80 -19 7 -10 -8
-30 -33 -43 -25 -14 -68 -46 -96 -72 -27 -26 -89 -81 -136 -120 -48 -40 -101
-105 -119 -144 -18 -40 -36 -77 -39 -84 -4 -6 24 -10 62 -10 37 1 64 8 60 16
-18 28 43 120 98 149 55 29 57 28 44 -12 -7 -24 -4 -41 9 -41 32 0 25 -43 -12
-70 -20 -15 -27 -34 -17 -50 20 -32 70 27 70 81 0 19 19 39 43 46 48 12 19 73
-34 73 -46 0 -54 41 -16 82 68 71 77 78 157 131 43 29 99 52 124 52 25 0 56
12 68 28 13 15 35 27 50 27 16 0 28 9 28 20 0 11 -31 20 -70 20 -49 0 -70 -9
-70 -30z"/>
<path d="M3540 7613 c0 -15 20 -37 45 -50 47 -25 6 -21 -145 12 -44 10 -47 8
-23 -21 23 -29 15 -34 -75 -46 -141 -18 -133 -57 8 -42 87 9 110 5 110 -17 0
-22 29 -29 120 -29 66 0 120 -9 120 -19 0 -11 -12 -15 -27 -9 -17 6 -32 -6
-38 -31 -14 -51 -155 -59 -195 -11 -32 38 -112 39 -127 1 -8 -21 8 -30 63 -36
l74 -6 -77 -17 c-56 -13 -82 -10 -93 8 -11 19 -30 20 -73 4 l-57 -21 55 -1
c103 -3 49 -62 -57 -62 -47 0 -61 -30 -33 -72 18 -26 105 -50 105 -29 0 8 -20
25 -45 38 -35 18 13 21 225 12 286 -12 312 -17 230 -37 -89 -23 -34 -50 78
-38 69 7 111 3 120 -11 8 -13 35 -23 59 -23 25 0 54 -8 64 -17 37 -34 124 -44
135 -15 9 22 41 21 187 -10 204 -43 234 -45 217 -18 -7 11 -34 20 -61 20 -27
0 -49 9 -49 20 0 11 -27 20 -60 20 -40 0 -60 10 -60 30 0 20 -21 30 -65 31
-53 2 -58 5 -25 18 22 9 55 8 74 -2 18 -9 49 -17 68 -17 19 0 51 -15 71 -32
20 -18 58 -33 86 -33 35 0 51 -11 51 -35 0 -27 20 -38 80 -43 90 -9 102 5 35
40 -42 21 -42 22 -3 13 52 -13 112 7 97 32 -7 10 -19 14 -29 8 -9 -6 -59 12
-111 40 -111 59 -153 64 -135 17 7 -18 4 -29 -6 -24 -10 4 -72 34 -138 65 -66
32 -139 67 -163 77 -24 11 -134 95 -246 187 -112 93 -220 168 -241 168 -21 0
-43 9 -50 20 -18 29 -70 24 -70 -7z m280 -330 c0 -10 35 -23 77 -30 141 -23
242 -75 186 -96 -26 -9 -56 -11 -68 -4 -23 14 -307 50 -455 57 -151 8 -154 11
-40 49 116 39 300 53 300 24z"/>
<path d="M3214 7592 c-8 -20 -37 -32 -76 -32 -40 0 -77 -16 -101 -43 -47 -55
-44 -57 53 -37 222 48 289 70 273 95 -26 41 -135 54 -149 17z"/>
<path d="M3854 7607 c-24 -23 8 -47 62 -46 52 0 52 1 15 30 -43 32 -58 35 -77
16z"/>
<path d="M4462 7593 c22 -19 198 -30 198 -13 0 11 -46 20 -103 20 -57 0 -100
-3 -95 -7z"/>
<path d="M5700 7572 c0 -27 167 -98 186 -79 6 5 72 -21 147 -59 220 -111 366
-141 265 -54 -126 108 -513 260 -441 173 40 -47 -4 -41 -47 7 -42 46 -110 53
-110 12z"/>
<path d="M3989 7541 c12 -19 4 -22 -31 -10 -93 28 14 -60 193 -161 92 -52 164
-101 159 -109 -16 -28 119 -85 180 -77 l60 8 -62 29 c-34 16 -92 54 -130 85
-37 31 -126 95 -198 142 -182 119 -189 123 -171 93z"/>
<path d="M5660 7493 c0 -29 289 -233 329 -233 27 0 60 -16 75 -35 14 -19 40
-38 56 -42 17 -3 74 -28 128 -55 146 -73 203 -20 86 78 -100 85 -674 328 -674
287z m428 -179 c32 -24 30 -26 -20 -25 -30 1 -58 12 -63 26 -11 33 38 32 83
-1z"/>
<path d="M2295 7405 c78 -13 43 -58 -38 -48 -25 3 -81 -75 -68 -96 20 -32 48
-25 86 21 48 57 127 87 147 55 21 -34 -94 -150 -163 -164 -32 -7 -61 -29 -69
-52 -7 -23 -25 -41 -39 -41 -34 0 -130 -160 -117 -194 12 -30 103 55 162 152
38 62 39 63 51 18 12 -45 193 164 193 223 0 11 13 15 28 9 15 -6 34 -1 41 11
7 11 -1 21 -18 21 -40 0 -39 18 1 63 31 34 26 35 -105 33 -75 -2 -117 -7 -92
-11z"/>
<path d="M2614 7404 c-51 -11 -30 -54 26 -54 26 -1 51 -12 55 -25 5 -14 -6
-25 -23 -25 -18 0 -32 -15 -32 -32 0 -24 13 -30 50 -23 28 5 50 2 50 -8 0 -27
66 -19 109 14 45 34 91 38 91 8 0 -12 -11 -16 -25 -9 -14 7 -8 -1 14 -19 55
-44 146 -44 109 1 -22 27 -22 36 5 55 17 13 30 32 29 43 -1 11 48 25 108 32
66 7 84 13 46 15 -35 2 -69 12 -76 23 -19 31 -110 24 -123 -10 -6 -16 -28 -30
-48 -30 -20 0 -42 -8 -48 -18 -6 -10 -40 -28 -76 -40 l-65 -22 65 55 c36 30
65 62 65 70 0 23 -76 18 -91 -7 -7 -12 -33 -16 -56 -9 -63 19 -118 24 -159 15z"/>
<path d="M6400 7281 c0 -11 9 -21 20 -21 11 0 20 -22 20 -49 0 -31 14 -53 42
-61 56 -19 68 -1 32 51 -39 55 -114 108 -114 80z"/>
<path d="M6700 7217 c0 -27 -11 -60 -24 -73 -19 -19 -15 -24 18 -24 34 0 41
11 38 59 -5 74 -32 106 -32 38z"/>
<path d="M5520 7221 c0 -21 27 -29 77 -22 15 2 21 -6 14 -18 -7 -11 1 -21 19
-21 18 0 27 9 20 20 -7 11 8 20 32 20 69 0 38 13 -67 29 -62 9 -95 6 -95 -8z"/>
<path d="M2555 7160 c-41 -39 -25 -67 24 -41 18 10 85 15 147 12 118 -7 144
11 73 50 -31 16 -49 16 -70 -2 -20 -16 -45 -17 -84 -4 -43 15 -63 12 -90 -15z"/>
<path d="M6140 7126 c0 -10 50 -51 110 -92 103 -69 152 -76 75 -10 -61 51
-185 120 -185 102z"/>
<path d="M2991 7101 c-27 -44 12 -72 89 -64 91 8 99 -4 35 -60 l-45 -40 60 12
60 12 -50 -42 -50 -41 65 12 c36 7 65 5 65 -5 0 -29 -175 -104 -261 -111 -61
-5 -237 -115 -238 -149 -1 -14 -18 -25 -40 -25 -21 0 -44 -9 -51 -20 -7 -11
-30 -20 -51 -20 -59 0 -47 -34 16 -46 35 -8 63 -1 77 17 12 16 41 29 63 29 53
0 164 40 335 122 174 83 362 109 377 53 7 -27 22 -34 56 -26 115 27 260 25
289 -4 17 -16 36 -24 42 -17 7 7 -4 26 -25 43 -36 28 -34 29 36 17 83 -14 175
3 175 31 0 11 -34 25 -75 32 -41 6 -102 24 -135 38 -185 82 -496 75 -355 -7
30 -18 27 -21 -19 -21 -42 -1 -52 6 -43 31 10 25 1 30 -50 25 -83 -9 -82 30 1
45 l66 11 -60 24 c-33 13 -101 46 -150 72 -129 69 -197 92 -209 72z"/>
<path d="M6490 7100 c-7 -11 -28 -20 -48 -20 -77 0 -47 -173 36 -208 40 -17
61 -30 47 -31 -14 -1 -25 -15 -25 -33 0 -20 11 -28 29 -21 17 6 35 3 42 -8 6
-10 1 -19 -12 -19 -44 0 -6 -124 84 -280 109 -189 153 -240 208 -240 28 0 48
-15 55 -40 12 -48 -2 -50 -62 -9 -51 36 -91 -12 -47 -56 13 -13 23 -39 23 -58
0 -40 100 -117 153 -117 39 0 52 243 18 323 -7 18 -11 45 -9 60 3 15 -5 61
-17 103 -13 43 -18 89 -12 104 11 29 -49 70 -102 70 -34 0 -43 -70 -11 -90 11
-7 20 -41 20 -76 l-1 -64 -40 63 c-22 35 -62 68 -87 75 -68 17 -84 69 -17 56
35 -7 47 -3 37 13 -8 13 -2 23 16 23 21 0 26 11 18 33 -10 27 -5 31 26 19 66
-26 78 -23 72 18 -11 76 -23 90 -73 90 -28 0 -51 10 -51 21 0 13 17 16 40 9
28 -9 40 -4 40 19 0 17 -9 31 -20 31 -11 0 -20 27 -20 60 0 47 -9 60 -41 60
-34 0 -37 6 -20 39 29 53 -2 68 -110 52 -73 -11 -89 -8 -89 18 0 35 -31 42
-50 11z m175 -199 c12 -45 1 -61 -44 -61 -34 0 -86 68 -66 88 28 28 101 10
110 -27z m4 -189 c34 -29 50 -57 41 -72 -11 -17 -29 -7 -62 33 -76 93 -65 113
21 39z m172 -353 c12 -23 18 -52 14 -65 -5 -13 -24 5 -42 41 -19 36 -25 65
-14 65 11 0 29 -18 42 -41z"/>
<path d="M2505 7065 c-81 -7 -101 -22 -72 -51 7 -8 25 -4 40 9 56 46 24 -12
-35 -65 -45 -40 -58 -66 -49 -95 7 -22 4 -57 -7 -77 -10 -20 -26 -54 -34 -76
-13 -36 -15 -36 -23 -5 -11 48 -38 44 -96 -14 -55 -56 -62 -87 -21 -103 34
-13 55 -84 30 -99 -38 -24 -15 -49 45 -49 35 0 82 16 104 35 38 33 39 33 27 0
-7 -19 -4 -35 7 -35 10 0 19 -13 19 -30 0 -16 -9 -30 -20 -30 -11 0 -20 8 -20
19 0 11 -24 11 -57 2 -32 -9 -70 -9 -85 1 -68 43 -92 21 -90 -82 1 -55 9 -100
17 -100 8 0 15 -13 15 -30 0 -16 -14 -30 -31 -30 -22 0 -26 -9 -12 -35 71
-140 9 -284 -89 -203 -29 24 -31 21 -39 -62 -25 -255 -29 -397 -12 -408 13 -8
14 -32 2 -67 -57 -172 -19 -509 60 -533 17 -5 9 -8 -19 -6 -58 5 -73 -133 -21
-194 45 -54 148 -42 133 15 -8 33 1 58 27 82 28 25 36 51 28 91 -6 31 -1 61
11 69 13 8 22 -4 22 -30 0 -37 5 -40 30 -19 17 14 30 55 30 91 0 37 8 89 19
116 10 27 12 55 5 63 -8 7 -14 23 -14 35 0 12 -11 25 -25 30 -15 5 -25 -9 -25
-32 0 -22 -9 -46 -20 -53 -11 -7 -20 -34 -20 -60 0 -41 -48 -90 -89 -90 -34 0
-6 136 39 184 28 30 50 65 50 77 0 13 13 18 30 12 16 -6 68 6 115 27 47 22 68
37 47 35 -53 -7 -66 45 -14 59 23 6 42 19 42 29 0 10 22 28 48 40 95 43 79
150 -18 125 l-56 -14 43 43 c24 24 43 68 43 98 0 30 6 75 13 100 9 36 3 45
-28 45 -43 0 -99 -102 -76 -138 15 -25 -22 -102 -49 -102 -10 0 -14 13 -8 28
6 15 2 34 -10 41 -11 7 -15 25 -9 42 7 18 -1 29 -23 29 -28 0 -30 6 -11 29 28
34 12 71 -30 71 -16 0 -29 9 -29 20 0 11 7 20 15 20 8 0 27 27 41 59 16 35 37
55 53 49 44 -17 108 144 110 276 1 33 23 75 56 105 30 28 43 51 28 51 -14 0
-41 15 -59 34 -32 31 -31 32 16 21 l50 -13 -45 37 c-25 21 -45 43 -45 49 0 23
69 92 92 92 42 0 152 117 136 144 -8 15 -7 19 2 11 9 -8 36 -3 59 13 24 15 99
43 168 63 150 42 166 60 69 76 -51 8 -84 3 -107 -18 -43 -39 -101 -38 -86 1 6
17 23 30 38 30 15 0 32 9 38 19 17 26 -99 84 -138 69 -20 -8 -31 -1 -31 20 0
33 -21 35 -215 17z m196 -94 c-28 -34 -71 -43 -51 -11 7 11 3 20 -8 20 -11 0
-27 -12 -36 -27 -27 -45 -106 -55 -106 -13 0 34 27 49 140 80 63 17 95 -8 61
-49z m59 -71 c0 -11 -17 -20 -38 -20 -38 0 -72 -49 -64 -95 4 -28 -30 -34 -46
-8 -6 9 -40 12 -76 7 l-66 -9 50 38 c123 94 240 137 240 87z m-204 -170 c3 -3
-8 -19 -25 -36 -17 -17 -26 -44 -20 -60 6 -16 -3 -34 -23 -42 -18 -7 -35 -10
-36 -7 -1 3 -13 25 -27 50 -20 35 -20 45 -1 45 19 0 19 5 0 24 -43 43 -25 58
51 44 41 -7 78 -16 81 -18z m-404 -942 c37 -77 23 -132 -36 -144 -24 -5 -30
17 -30 105 0 129 18 140 66 39z m108 -287 c-12 -23 -30 -41 -41 -41 -31 0 -22
97 16 155 l35 54 6 -64 c4 -35 -3 -82 -16 -104z m77 -16 c19 -32 22 -32 61 4
31 27 42 30 41 9 -1 -23 -119 -136 -119 -114 0 3 -8 35 -19 71 -19 69 4 89 36
30z"/>
<path d="M3410 7060 c7 -12 -15 -20 -54 -21 -85 0 -39 -29 79 -49 56 -9 85 -6
85 8 0 12 18 22 40 22 22 0 40 -7 40 -15 1 -21 132 -76 250 -103 55 -13 134
-41 176 -63 41 -21 97 -39 125 -39 71 0 61 -50 -16 -75 l-65 -21 87 -2 c70 -2
85 4 76 28 -8 20 1 30 27 30 26 0 35 -10 27 -30 -16 -41 256 -44 298 -3 37 38
115 61 115 34 0 -35 42 -24 112 29 36 27 88 59 117 69 97 37 65 88 -48 75 -67
-8 -101 -4 -107 12 -6 17 -26 14 -72 -13 -52 -30 -75 -32 -125 -15 -34 12 -69
17 -79 11 -9 -6 -68 3 -131 19 -78 21 -123 24 -139 10 -38 -31 -579 19 -606
56 -31 42 -237 87 -212 46z m985 -184 c-4 -14 -30 -31 -56 -38 -38 -11 -29
-15 41 -18 50 -3 73 -9 52 -14 -58 -15 -294 15 -281 36 6 10 40 19 75 19 35 1
82 10 104 19 57 25 74 23 65 -4z"/>
<path d="M2320 7003 c0 -10 -28 -25 -63 -35 -35 -10 -72 -36 -84 -58 -12 -22
-48 -79 -80 -127 -72 -108 -97 -263 -43 -263 34 0 34 -2 3 -37 -39 -43 -41
-67 -9 -99 31 -31 78 7 61 51 -9 23 -3 29 21 19 21 -8 36 1 44 26 13 42 -20
120 -51 120 -37 0 -19 64 21 74 22 6 40 19 40 29 0 36 86 134 109 124 14 -5
37 7 53 25 26 32 23 33 -27 21 -73 -18 -76 38 -5 71 49 22 70 76 30 76 -11 0
-20 -8 -20 -17z"/>
<path d="M5845 6836 c-8 -31 -21 -36 -63 -25 -28 7 -90 16 -137 20 -46 3 -103
12 -125 19 -64 20 -46 -9 25 -40 62 -27 62 -29 15 -31 -43 -2 -40 -5 19 -23
50 -14 72 -13 77 3 6 17 15 17 36 0 17 -15 48 -18 83 -8 86 25 147 28 134 8
-6 -11 12 -19 40 -19 32 0 51 11 51 30 0 17 11 30 24 30 42 0 -51 54 -111 65
-46 8 -60 2 -68 -29z"/>
<path d="M6200 6782 c0 -9 23 -32 50 -50 88 -58 60 -95 -109 -143 -27 -8 -106
-14 -175 -13 -126 0 -166 -21 -81 -43 123 -33 448 36 469 100 4 12 -23 55 -60
95 -69 72 -94 87 -94 54z"/>
<path d="M7660 6760 c0 -11 11 -20 25 -20 19 -1 19 -4 1 -16 -25 -15 -6 -65
26 -71 10 -2 15 -16 11 -32 -5 -23 -1 -24 22 -5 15 13 47 26 71 30 64 9 71 26
31 72 -26 30 -39 35 -51 17 -13 -19 -22 -16 -37 10 -22 37 -99 49 -99 15z"/>
<path d="M5373 6719 c12 -12 56 -25 99 -29 76 -7 77 -6 28 21 -61 34 -159 40
-127 8z"/>
<path d="M8453 6725 c-16 -26 -22 -203 -7 -218 8 -7 14 1 14 18 0 18 7 37 16
43 9 5 13 -78 10 -184 -3 -107 -6 -245 -5 -307 0 -63 -10 -120 -22 -127 -14
-10 -10 -27 14 -53 28 -31 29 -38 6 -33 -21 4 -29 -12 -29 -59 0 -36 -6 -65
-15 -65 -8 0 -14 -7 -13 -15 2 -8 1 -19 -1 -25 -2 -5 -7 -64 -10 -130 -3 -66
-11 -133 -18 -150 -14 -34 -9 -79 14 -115 8 -14 10 -33 4 -43 -17 -28 46 -82
95 -82 35 1 38 5 15 19 -16 10 -39 13 -50 6 -12 -6 -5 6 14 28 19 22 35 56 35
75 0 19 8 29 18 23 10 -6 14 7 8 29 -6 22 -2 40 8 40 10 0 19 38 21 85 2 47
-2 74 -8 60 -21 -51 -37 -22 -42 76 -3 73 3 103 25 112 25 9 25 19 -2 71 -17
33 -27 77 -22 97 7 26 1 33 -21 24 -23 -9 -26 -1 -14 37 20 62 27 161 30 408
4 267 2 294 -18 282 -10 -6 -15 11 -12 39 5 46 -18 67 -38 34z"/>
<path d="M5020 6699 c0 -12 -8 -17 -17 -11 -22 14 -74 -44 -92 -103 -11 -36
-7 -42 19 -32 20 7 29 27 24 49 -7 26 7 41 50 56 32 12 53 30 46 41 -16 27
-30 27 -30 0z"/>
<path d="M3359 6625 c27 -22 63 -36 80 -31 21 6 20 2 -4 -14 -19 -12 -44 -17
-55 -10 -23 14 -113 -42 -127 -80 -13 -34 64 -34 107 1 25 21 82 35 215 52
104 14 -21 89 -185 111 l-80 11 49 -40z"/>
<path d="M3134 6413 c-20 -52 23 -87 56 -45 16 21 24 46 18 55 -16 26 -63 20
-74 -10z"/>
<path d="M2084 6316 c-28 -28 -33 -136 -6 -136 18 0 51 137 37 152 -4 4 -18
-3 -31 -16z"/>
<path d="M2790 6295 c-11 -25 -35 -44 -54 -42 -20 1 -29 -8 -22 -26 20 -53
156 26 139 82 -11 37 -44 30 -63 -14z"/>
<path d="M4051 6281 c-6 -10 -3 -23 7 -30 24 -14 82 8 82 31 0 24 -74 23 -89
-1z"/>
<path d="M2801 6171 c-14 -16 -19 -39 -12 -50 22 -36 46 -23 56 29 11 56 -8
65 -44 21z"/>
<path d="M2060 6070 c-20 -24 -20 -30 0 -30 15 0 21 -16 14 -40 -6 -25 0 -40
17 -40 16 0 26 22 25 61 -2 72 -22 90 -56 49z"/>
<path d="M7711 5982 c-26 -10 -31 -20 -15 -30 17 -10 18 -25 3 -53 -13 -25
-13 -39 -1 -39 22 0 51 39 53 70 0 11 13 17 28 14 23 -5 23 -1 2 25 -14 17
-27 30 -28 30 -2 -1 -20 -9 -42 -17z"/>
<path d="M6834 5943 c-4 -7 -5 -52 -4 -100 2 -56 -7 -91 -23 -97 -15 -6 -22
-18 -16 -27 6 -10 24 -12 40 -6 21 8 26 2 17 -21 -7 -17 -18 -32 -26 -32 -18
0 -13 -165 6 -197 9 -14 11 -30 5 -36 -6 -6 13 -31 41 -55 39 -34 52 -66 55
-133 12 -233 111 -659 111 -474 0 29 9 58 20 65 11 7 20 41 20 76 0 35 8 75
17 89 9 14 8 86 -1 160 -9 74 -29 269 -45 432 -15 163 -34 302 -41 310 -21 21
-170 60 -176 46z"/>
<path d="M6040 5561 c-27 -9 -88 -11 -135 -6 -66 8 -87 3 -97 -22 -7 -18 -29
-33 -49 -33 -20 0 -42 -9 -49 -20 -7 -11 -38 -20 -70 -20 -32 0 -62 -8 -68
-17 -6 -10 -63 -23 -126 -30 -127 -15 -246 -67 -246 -109 0 -14 9 -21 20 -14
11 7 20 -1 20 -16 0 -39 70 -55 136 -33 30 10 104 22 164 26 61 5 178 24 260
44 83 20 186 38 230 41 44 3 90 6 102 7 12 0 48 23 79 50 32 27 61 46 66 41 4
-5 23 -1 41 8 38 20 122 -7 122 -40 0 -14 -19 -18 -53 -9 -140 35 -206 -27
-97 -92 38 -22 65 -49 59 -59 -6 -10 -2 -18 9 -18 11 0 51 -31 88 -70 75 -77
94 -85 94 -40 0 17 9 30 20 30 11 0 20 -18 20 -40 0 -22 9 -40 20 -40 27 0 25
33 -4 86 -13 24 -27 75 -31 114 -4 38 -25 89 -47 112 -23 24 -34 55 -27 74 9
23 -2 36 -39 45 -29 7 -52 20 -52 29 0 30 -90 40 -111 12 -25 -34 -189 -91
-223 -78 -45 17 -4 50 46 37 39 -9 48 -4 48 29 0 43 -31 48 -120 21z"/>
<path d="M3680 5461 c0 -11 -13 -21 -30 -21 -16 0 -30 -9 -30 -19 0 -11 -64
-16 -149 -13 -134 6 -151 3 -162 -32 -8 -24 -24 -35 -42 -27 -17 6 -41 11 -54
12 -12 0 -1 12 25 27 l48 27 -73 24 c-86 28 -146 14 -163 -40 -7 -21 -25 -39
-39 -39 -15 0 -45 -29 -67 -65 -22 -36 -65 -99 -96 -141 -42 -57 -50 -81 -31
-92 19 -12 18 -21 -6 -41 -44 -37 -38 -61 15 -61 26 0 72 27 103 59 32 33 64
55 73 50 22 -14 140 92 126 114 -6 9 13 17 42 17 29 0 71 10 94 22 77 41 502
27 564 -18 49 -36 372 -3 372 38 0 21 10 36 23 33 12 -3 26 5 30 17 9 23 -134
68 -215 68 -59 0 -260 67 -343 114 -8 5 -15 -1 -15 -13z"/>
<path d="M48 5390 c2 -17 16 -42 31 -55 19 -17 23 -18 14 -1 -8 13 -5 29 7 36
33 21 23 50 -18 50 -23 0 -37 -12 -34 -30z"/>
<path d="M4838 5346 c-18 -17 -52 -48 -75 -68 -53 -47 -56 -98 -5 -98 22 0 49
26 67 63 29 59 32 60 52 22 12 -22 15 -47 7 -56 -8 -8 -3 -9 11 -1 14 8 25 50
25 93 0 85 -26 99 -82 45z"/>
<path d="M4980 5300 c0 -22 13 -40 30 -40 17 0 30 -10 30 -23 0 -13 5 -19 11
-13 14 15 -33 116 -54 116 -9 0 -17 -18 -17 -40z"/>
<path d="M4624 5276 c-35 -35 -30 -56 14 -56 21 0 42 18 48 40 11 45 -24 54
-62 16z"/>
<path d="M4233 5244 c-26 -41 24 -72 77 -48 29 13 47 33 40 44 -15 24 -103 27
-117 4z"/>
<path d="M4415 5228 c-8 -8 -15 -40 -15 -71 0 -60 -99 -87 -131 -36 -9 15 -20
15 -38 0 -13 -11 -32 -14 -41 -6 -8 8 -6 -4 7 -27 12 -24 16 -48 9 -55 -6 -7
2 -17 19 -24 45 -17 19 -89 -32 -89 -24 0 -101 19 -173 42 -258 82 -744 4
-884 -143 -96 -100 -312 -47 -397 97 -22 38 -46 63 -53 57 -7 -7 -23 -4 -37 7
-31 27 -122 -43 -101 -77 8 -13 23 -19 32 -13 10 6 25 -1 34 -15 9 -14 85 -58
169 -97 l153 -71 -154 9 c-124 7 -161 2 -187 -24 -18 -17 -40 -32 -50 -32 -11
0 -34 -16 -52 -37 -31 -34 -30 -36 10 -35 24 1 47 -11 51 -28 8 -27 7 -27 -14
0 -19 25 -21 24 -16 -9 8 -50 44 -44 52 8 11 66 70 82 364 101 168 11 305 29
344 47 71 33 355 64 489 55 74 -5 85 0 90 40 9 58 57 74 70 23 9 -34 29 -39
154 -42 196 -3 214 4 192 80 -14 51 -12 59 14 49 16 -7 38 -12 47 -12 9 0 23
-27 30 -61 12 -51 18 -57 44 -36 25 21 36 17 66 -23 l37 -49 16 59 c23 89 10
134 -57 196 -49 45 -55 61 -35 85 13 16 16 29 6 29 -9 0 -3 9 13 20 25 16 25
23 3 37 -14 10 -25 23 -23 31 6 26 -11 54 -25 40z"/>
<path d="M5011 5124 c7 -36 4 -77 -6 -90 -95 -120 -19 -294 81 -186 60 64 124
75 124 22 0 -29 13 -40 45 -39 25 1 99 3 165 5 81 3 118 12 115 28 -3 13 11
27 30 31 25 6 35 -4 35 -34 0 -41 8 -42 291 -40 241 2 300 -3 342 -31 40 -26
100 -34 264 -35 135 -1 238 -12 281 -30 86 -35 127 -6 73 54 -20 22 -41 39
-48 38 -156 -20 -294 24 -168 52 65 15 157 86 137 106 -8 7 -31 3 -53 -11 -21
-13 -51 -24 -66 -24 -15 0 -50 -18 -78 -40 -63 -49 -143 -51 -193 -5 -21 19
-59 53 -85 76 -126 109 -592 129 -870 39 -86 -28 -167 -47 -181 -41 -30 11
-36 71 -7 71 10 0 24 18 31 41 8 24 37 45 72 52 32 7 58 19 58 28 0 18 -40 14
-74 -7 -13 -8 -47 -9 -75 -2 -29 7 -64 2 -80 -11 -36 -30 -113 -20 -147 19
-22 25 -24 19 -13 -36z"/>
<path d="M1841 5012 c-13 -17 -44 -37 -68 -44 -152 -48 -291 -273 -200 -325
84 -46 13 -302 -96 -350 -139 -61 -322 -273 -235 -273 14 0 17 -19 9 -52 -9
-37 -6 -47 12 -36 16 10 20 4 11 -19 -14 -36 16 -46 37 -12 8 14 21 14 36 1
32 -26 64 -4 83 57 15 47 16 48 45 10 26 -33 29 -34 18 -4 -6 20 5 66 26 103
21 38 35 71 32 75 -3 4 11 24 32 45 37 38 37 38 37 0 1 -32 4 -33 20 -8 15 24
26 25 58 6 40 -25 52 129 14 191 -8 13 -19 98 -24 190 -12 205 38 293 166 293
l70 0 -13 75 c-17 93 -37 115 -70 77z"/>
<path d="M7109 4752 c-95 -99 -107 -133 -59 -172 17 -14 29 -53 28 -87 -2 -36
-7 -48 -12 -27 -16 61 -56 26 -62 -55 -9 -104 7 -143 46 -111 43 36 37 7 -8
-38 -21 -21 -44 -33 -50 -27 -11 11 -15 -17 -22 -155 -10 -193 -38 -423 -53
-432 -9 -6 -11 -34 -4 -62 11 -45 7 -51 -28 -42 -41 11 -43 -50 -3 -75 10 -6
18 -30 18 -52 0 -40 -2 -40 -49 -10 -56 38 -77 19 -68 -62 3 -30 -1 -66 -10
-80 -9 -14 -6 -25 8 -25 27 0 7 -148 -28 -203 -16 -26 -14 -51 10 -101 47 -98
19 -234 -48 -236 -8 0 -15 27 -15 61 0 33 -14 81 -30 106 -25 39 -27 72 -8
211 12 90 18 169 12 175 -40 39 -139 -196 -105 -251 30 -50 -44 -139 -83 -100
-16 16 -21 8 -19 -28 2 -37 9 -45 27 -31 40 33 66 0 66 -84 0 -83 -31 -106
-56 -40 -10 27 -23 34 -42 22 -17 -10 -21 -27 -10 -43 9 -15 14 -57 10 -94 -6
-74 27 -127 69 -111 17 7 29 -1 29 -18 0 -17 15 -42 33 -57 29 -24 31 -23 21
12 -40 136 -39 190 4 193 23 2 51 4 62 5 11 1 18 -7 15 -18 -3 -11 -12 -18
-20 -15 -8 3 -15 -9 -15 -25 0 -17 -9 -30 -20 -30 -11 0 -20 -10 -20 -21 0
-12 11 -15 25 -6 17 10 16 3 -3 -20 -32 -39 -23 -54 36 -58 49 -4 49 -4 18
-61 -13 -24 -25 -53 -25 -64 -3 -58 -223 -297 -255 -277 -13 7 -15 -4 -7 -29
13 -43 -47 -80 -89 -54 -11 7 -20 3 -20 -9 0 -11 14 -21 30 -21 17 0 30 -8 30
-19 0 -11 -25 -11 -64 0 -50 15 -72 12 -95 -12 -28 -28 -27 -30 9 -19 37 12
37 11 -2 -14 -23 -14 -38 -39 -32 -54 6 -19 1 -22 -18 -10 -50 30 -91 28 -130
-9 -67 -62 -130 -68 -116 -11 9 33 3 51 -20 60 -17 7 -27 19 -22 28 9 14 -73
80 -99 80 -27 0 -5 -75 59 -206 83 -169 82 -154 18 -154 -40 0 -49 8 -40 33
14 36 -36 127 -70 127 -11 0 -18 -16 -14 -35 4 -19 17 -35 30 -35 40 0 53 -29
19 -42 -19 -7 -61 -1 -94 12 -70 29 -106 9 -53 -30 31 -22 34 -38 18 -94 -34
-124 41 -199 136 -135 23 15 17 18 -25 11 -62 -11 -102 69 -57 114 28 28 68
-20 47 -55 -7 -12 3 -8 22 7 26 21 40 23 58 5 37 -37 86 -30 55 7 -19 22 -19
30 -1 30 13 0 18 8 12 18 -6 10 5 16 24 13 19 -3 46 3 59 13 13 11 34 14 45 7
12 -8 21 0 21 15 0 16 28 41 62 55 55 23 59 29 30 50 -17 13 -32 35 -32 50 0
19 8 16 25 -7 28 -38 115 -26 115 16 0 14 18 30 41 36 22 6 38 23 35 37 -4 17
11 26 39 25 41 -1 54 15 47 58 -2 10 5 12 16 5 10 -6 23 0 29 14 8 20 10 20
11 0 1 -14 11 -25 22 -25 11 0 18 11 15 24 -3 13 7 25 21 25 14 1 32 10 40 21
41 57 104 25 104 -53 0 -42 9 -77 20 -77 11 0 20 -13 20 -30 0 -16 -9 -30 -20
-30 -10 0 -25 -25 -33 -55 -30 -118 -90 -134 -148 -40 -23 36 -39 52 -37 35 2
-16 -11 -63 -29 -104 -60 -135 -57 -136 184 -108 l188 22 3 94 c4 124 27 146
108 105 76 -38 85 -56 14 -29 -58 22 -71 -18 -20 -60 76 -63 14 -209 -89 -210
-36 0 -65 -105 -40 -151 14 -28 8 -37 -31 -47 -65 -16 -65 -52 0 -52 53 0 69
-53 29 -93 -12 -12 -25 -39 -28 -59 -3 -21 -16 -36 -29 -33 -12 3 -22 -4 -22
-15 0 -11 13 -20 28 -20 36 0 47 -32 41 -125 l-4 -76 46 63 c25 34 42 73 36
87 -5 14 4 31 20 37 19 7 26 27 19 52 -14 54 51 341 88 392 27 37 29 31 19
-66 -8 -82 -4 -104 17 -100 15 4 41 -12 57 -34 16 -22 35 -35 41 -29 14 14
-51 286 -72 300 -9 6 -20 88 -24 183 -4 94 -17 188 -27 209 -11 20 -26 71 -33
113 -8 41 -45 148 -83 236 -38 89 -69 172 -69 185 0 13 -13 48 -30 79 -30 58
-15 115 80 294 14 28 33 95 41 150 8 55 23 111 34 125 11 13 14 38 8 54 -6 16
-4 34 6 40 9 6 22 51 30 100 7 50 20 94 29 100 9 5 17 66 19 135 6 294 40 503
103 632 75 154 115 339 123 572 8 218 -11 233 -134 104z m-189 -2905 c0 -33
-87 -88 -102 -64 -32 51 -19 74 42 73 33 -1 60 -5 60 -9z"/>
<path d="M2271 4729 c-20 -47 -24 -81 -13 -88 12 -7 13 -24 3 -40 -10 -15 -12
-41 -6 -57 6 -16 -4 -37 -22 -47 -36 -21 -45 -77 -13 -77 11 0 20 -18 20 -40
0 -44 21 -51 54 -18 15 15 25 15 35 0 7 -12 0 -22 -16 -22 -40 0 -50 -38 -35
-130 13 -75 15 -77 38 -36 13 24 18 57 12 75 -7 17 1 51 16 76 34 53 35 285 1
285 -39 0 -45 22 -25 91 29 99 -10 122 -49 28z"/>
<path d="M564 4735 c-27 -34 -19 -160 12 -170 30 -10 31 18 1 83 -18 39 -17
58 3 81 13 17 20 31 15 31 -6 0 -19 -11 -31 -25z"/>
<path d="M5165 4735 c4 -14 61 -44 126 -67 66 -23 133 -48 149 -55 134 -57
284 -93 388 -92 160 0 388 60 376 97 -10 31 213 16 235 -15 51 -71 234 -136
274 -97 47 48 -397 177 -532 155 -306 -50 -711 -20 -812 60 -11 9 -45 14 -75
10 -30 -3 -60 2 -66 12 -16 27 -72 20 -63 -8z"/>
<path d="M4296 4719 c-7 -21 -164 -63 -236 -63 -16 0 -61 -14 -100 -31 -103
-47 -432 -66 -520 -30 -83 33 -236 37 -266 7 -16 -16 9 -22 87 -23 95 -1 102
-4 59 -22 l-50 -21 50 -20 c147 -58 540 -28 747 58 189 78 274 132 249 157 -7
6 -15 1 -20 -12z"/>
<path d="M1767 4577 c14 -131 72 -343 98 -354 8 -3 15 -24 15 -45 0 -81 83
-213 102 -163 20 53 -19 269 -45 253 -9 -6 -17 8 -17 31 0 22 -10 41 -21 41
-12 0 -15 11 -6 24 8 14 13 50 11 82 -5 65 10 100 37 83 12 -7 11 -27 -3 -52
-27 -51 -13 -66 39 -39 39 21 71 -16 61 -71 -7 -43 4 -88 19 -79 9 6 31 0 49
-14 34 -26 12 -231 -29 -256 -11 -7 -11 -32 2 -66 12 -30 21 -95 21 -144 0
-64 9 -93 33 -102 49 -19 98 22 90 77 -3 26 -9 124 -13 217 -3 94 -7 189 -8
213 -1 24 -19 47 -41 53 -31 8 -38 26 -36 88 3 85 -56 186 -100 171 -14 -5
-25 4 -25 19 0 37 -157 156 -206 156 -37 0 -39 -10 -27 -123z"/>
<path d="M4509 4541 c6 -9 0 -21 -13 -26 -18 -6 -20 -20 -6 -51 14 -31 28 -38
49 -25 23 14 23 24 4 48 -20 23 -19 31 0 37 16 6 13 13 -10 22 -19 7 -30 5
-24 -5z"/>
<path d="M2880 4489 c-55 -29 -76 -47 -52 -48 34 -1 172 71 172 91 0 15 -28 5
-120 -43z"/>
<path d="M24 4093 c-1 -232 5 -459 14 -503 11 -51 16 67 16 326 0 282 7 413
23 429 27 27 31 62 4 46 -30 -19 -45 25 -22 67 15 28 13 41 -7 48 -22 9 -27
-65 -28 -413z"/>
<path d="M2442 4491 c-41 -22 -43 -28 -16 -43 17 -10 31 -27 31 -37 0 -11 11
-24 25 -28 16 -6 20 3 11 27 -8 19 -4 47 8 61 31 37 -4 49 -59 20z"/>
<path d="M4510 4400 c-22 -9 -28 -18 -14 -19 15 0 21 -10 14 -21 -7 -11 1 -26
19 -32 17 -7 26 -19 21 -28 -6 -9 8 -11 31 -6 31 8 40 25 35 63 -6 57 -42 71
-106 43z"/>
<path d="M2604 4235 c-11 -14 -23 -46 -27 -71 -4 -25 -14 -43 -22 -40 -44 18
-94 -149 -58 -195 47 -59 81 -37 76 51 -2 57 4 69 37 70 34 0 39 12 35 74 -3
56 4 75 30 80 31 7 30 11 -8 31 -33 19 -47 19 -63 0z"/>
<path d="M4270 4240 c-11 -10 -40 -36 -65 -59 -25 -23 -45 -36 -45 -30 0 26
-76 -65 -89 -106 -10 -34 -29 -45 -74 -45 -161 0 -653 -503 -685 -700 -11 -69
-3 -103 48 -202 33 -66 60 -131 60 -145 0 -14 27 -51 60 -83 l60 -57 0 54 c0
30 -13 74 -29 99 -66 101 45 155 143 69 151 -133 454 -295 553 -295 25 0 54
-9 64 -19 65 -65 817 -65 959 0 22 10 70 23 107 29 36 6 90 28 120 49 29 20
139 93 243 161 105 69 198 139 208 157 16 27 20 26 34 -8 22 -55 22 -229 0
-229 -10 0 -14 -17 -8 -38 5 -21 1 -43 -10 -49 -10 -7 -14 -73 -9 -152 7 -95
2 -150 -14 -170 -41 -50 48 -208 111 -196 74 15 49 174 -36 228 -21 13 -21 16
0 17 18 0 22 14 14 40 -7 23 -4 40 9 40 11 0 21 -19 21 -41 0 -23 14 -55 30
-72 37 -37 38 -19 1 103 -16 53 -25 104 -19 113 20 32 -18 17 -44 -18 -23 -30
-25 -25 -18 45 4 44 8 92 9 107 1 16 14 22 31 16 25 -10 27 -5 10 26 -11 21
-20 64 -20 95 l1 56 37 -48 c42 -55 71 -29 45 41 -14 36 -8 55 23 82 76 66 49
415 -32 415 -22 0 -102 93 -167 195 -30 47 -72 90 -94 97 -30 10 -33 16 -11
30 21 13 16 17 -17 18 -25 0 -45 7 -45 16 0 8 -62 68 -139 133 -76 65 -137
127 -135 139 2 12 -18 24 -46 28 -27 3 -63 11 -80 16 -16 6 -34 11 -40 11 -5
1 -26 9 -45 20 -26 13 -45 10 -67 -12 -17 -17 -40 -26 -52 -19 -13 8 -16 -3
-8 -29 7 -24 17 -62 24 -85 l12 -41 30 42 c59 85 174 5 203 -140 11 -49 25
-67 58 -69 25 -2 60 -17 80 -34 19 -17 45 -34 58 -38 39 -13 403 -339 416
-373 17 -43 13 -44 -89 -25 -51 10 -93 9 -96 -1 -4 -10 -24 -9 -45 2 -22 10
-58 29 -82 41 -42 22 -44 -48 -4 -153 6 -16 1 -29 -11 -29 -12 0 -22 12 -22
28 0 47 -53 78 -68 39 -20 -50 83 -151 137 -134 22 7 44 20 48 30 11 29 43 19
43 -14 0 -131 -198 -184 -545 -147 -163 18 -255 19 -291 6 -36 -13 -126 -14
-264 -1 -270 24 -433 26 -734 8 -237 -15 -245 -14 -298 32 -63 54 -52 92 22
78 29 -6 50 0 50 13 0 12 14 22 30 22 35 0 39 23 8 54 -15 15 -15 25 0 35 12
7 22 5 22 -6 0 -11 18 -15 40 -9 22 6 40 19 40 30 0 10 9 13 21 5 13 -7 14
-22 3 -36 -33 -43 -46 -96 -19 -79 14 8 66 29 115 46 53 18 90 42 90 60 0 33
46 70 65 52 6 -7 1 -35 -12 -63 -33 -72 -29 -84 25 -84 32 0 53 14 61 43 11
39 13 39 32 7 12 -19 42 -35 68 -35 26 0 53 15 60 35 12 31 17 31 37 5 57 -72
197 -107 404 -99 113 4 150 25 150 85 0 41 0 41 31 3 23 -28 35 -32 42 -14 6
14 19 20 29 14 10 -6 24 2 30 20 14 36 48 22 48 -20 0 -16 -14 -29 -31 -29
-17 0 -26 -9 -19 -20 26 -41 70 -20 70 34 0 51 1 52 28 15 42 -57 63 -19 24
41 -31 48 -31 54 -1 84 65 65 143 -47 106 -151 -20 -55 -1 -101 25 -60 10 15
18 52 18 83 l0 55 72 -72 c40 -39 78 -65 85 -58 7 8 2 18 -12 23 -14 5 -25 19
-25 30 0 12 -16 34 -35 48 -32 25 -31 27 15 28 l50 1 -48 37 c-49 38 -32 72
26 50 54 -21 35 24 -21 50 -41 19 -57 19 -68 0 -61 -99 -113 171 -59 311 21
55 -6 72 -35 21 -9 -17 -77 -43 -153 -59 -131 -27 -157 -43 -284 -166 -25 -25
-67 -45 -92 -45 -25 0 -66 -6 -91 -13 -32 -8 -48 -1 -57 26 -38 118 -59 152
-112 179 -44 23 -55 40 -45 70 10 34 5 32 -38 -11 -89 -89 -278 -43 -305 74
-39 165 80 314 205 257 75 -34 81 38 8 103 -66 59 -80 63 -111 35z m-145 -466
c25 -68 29 -107 15 -144 -10 -27 -14 -63 -7 -80 6 -17 0 -30 -16 -31 -19 0
-17 -8 8 -27 52 -39 43 -67 -26 -82 -78 -17 -92 -4 -61 63 28 61 15 83 -28 47
-37 -31 -40 -118 -3 -132 17 -6 23 -29 18 -59 -13 -65 -45 -63 -45 3 0 46 -6
51 -50 40 -38 -10 -50 -5 -50 19 0 25 -13 29 -61 19 -33 -8 -72 -5 -85 6 -13
11 -51 24 -84 27 -155 18 11 242 278 376 146 74 153 72 197 -45z m191 -269
c-3 -19 -27 -38 -51 -41 -54 -8 -58 12 -10 48 48 37 69 34 61 -7z m156 -57
c-7 -17 -12 -44 -12 -59 0 -16 -12 -23 -30 -16 -48 18 -38 107 12 107 30 0 39
-9 30 -32z m155 -58 c-5 -15 -24 -32 -41 -39 -22 -8 -27 -2 -18 20 6 18 12 46
12 63 0 25 6 26 29 7 16 -13 24 -36 18 -51z m-1067 -34 c0 -13 22 -2 50 24 52
49 84 44 63 -10 -15 -38 -177 -114 -198 -93 -35 35 7 143 47 122 21 -11 38
-31 38 -43z m1200 46 c0 -10 5 -33 12 -50 9 -24 -1 -32 -40 -32 -29 0 -52 9
-52 20 0 11 14 20 32 20 20 0 28 11 21 30 -7 17 -3 30 8 30 10 0 19 -8 19 -18z
m1145 -62 c19 0 35 -9 35 -20 0 -11 -13 -20 -30 -20 -16 0 -31 -16 -32 -35 -3
-33 -3 -33 -12 0 -10 40 -45 47 -47 10 -1 -14 -10 -7 -19 15 -27 64 -23 75 25
63 25 -7 61 -13 80 -13z m-2432 -150 c3 -51 -20 -67 -44 -29 -15 24 3 79 25
79 9 0 17 -23 19 -50z m774 -232 l29 -42 42 42 c53 53 83 53 150 0 51 -41 56
-41 93 -8 50 46 177 28 216 -29 27 -39 28 -39 60 -2 53 60 152 71 198 22 l38
-41 37 40 c45 49 121 52 149 5 20 -33 24 -32 59 10 54 64 82 56 82 -23 0 -73
-40 -120 -108 -126 -23 -2 -68 -10 -100 -18 -43 -10 -62 -5 -76 20 -23 42 -61
20 -47 -26 19 -58 -485 -58 -530 0 -28 37 -35 38 -88 10 -42 -21 -68 -24 -95
-10 -21 11 -53 19 -72 17 -67 -7 -83 2 -113 60 -63 121 2 205 76 99z"/>
<path d="M1760 3994 c-69 -30 -69 -29 -41 -62 13 -16 37 -25 53 -19 20 8 25 2
16 -21 -14 -35 22 -44 43 -11 8 14 26 10 51 -13 38 -34 48 -18 26 40 -7 18
-25 32 -40 32 -15 0 -28 13 -28 29 0 42 -23 49 -80 25z"/>
<path d="M965 3987 c-14 -6 -25 -19 -25 -29 0 -29 73 -21 100 12 26 31 -16 41
-75 17z"/>
<path d="M1011 3870 c-15 -84 5 -210 35 -210 11 0 15 6 8 13 -7 7 4 36 25 65
32 46 34 58 9 91 -15 21 -28 55 -28 75 0 63 -35 39 -49 -34z"/>
<path d="M2300 3850 c0 -24 11 -29 40 -20 22 7 40 5 40 -4 -1 -31 -58 -176
-62 -156 -3 11 -10 -29 -16 -88 -14 -127 -51 -155 -71 -53 -15 81 -51 96 -51
21 0 -55 63 -130 110 -130 20 0 30 -20 30 -59 0 -34 14 -67 33 -77 23 -13 25
-23 9 -33 -18 -11 -18 -22 -2 -41 15 -18 15 -30 1 -39 -31 -20 -25 -51 9 -51
21 0 30 -21 30 -69 0 -38 8 -74 18 -80 17 -10 29 -49 61 -201 23 -111 115
-350 157 -410 19 -27 49 -81 67 -120 78 -166 107 -220 119 -220 8 0 12 -15 11
-33 -2 -18 8 -37 22 -42 14 -4 25 7 25 27 0 19 7 28 15 20 8 -9 15 -22 15 -29
0 -17 93 -108 197 -193 40 -33 73 -67 73 -77 0 -9 33 -45 73 -80 40 -35 95
-83 123 -108 27 -25 57 -45 66 -45 9 0 12 -12 7 -27 -7 -17 18 -36 72 -53 45
-15 92 -41 105 -59 40 -52 97 -92 90 -62 -3 14 5 30 18 35 14 5 30 -14 37 -43
8 -28 22 -51 33 -51 10 0 13 -18 6 -40 -10 -33 -4 -40 39 -40 31 0 51 -11 51
-29 0 -19 12 -25 31 -18 17 7 46 -1 65 -17 39 -33 79 -35 100 -6 23 32 82 29
70 -3 -6 -16 -3 -27 7 -25 62 12 145 -29 127 -63 -17 -30 -10 -38 40 -49 34
-7 55 -22 48 -34 -7 -11 3 -17 25 -12 20 4 52 -11 70 -34 19 -22 41 -33 50
-24 9 9 3 25 -14 37 -21 15 -12 17 36 9 38 -6 65 -3 65 9 0 14 13 13 39 0 62
-34 94 -25 169 46 77 72 92 72 92 0 0 -48 47 -65 71 -26 24 40 31 135 10 148
-13 8 -21 -12 -22 -53 -1 -60 -3 -62 -20 -21 -18 45 -99 65 -99 24 0 -12 -9
-16 -20 -9 -34 21 -140 28 -140 9 0 -11 -14 -19 -31 -19 -19 0 -26 9 -17 23
13 22 -12 20 -112 -5 -16 -5 -28 2 -26 14 4 23 3 23 -140 41 -68 8 -94 19 -87
37 6 15 -2 31 -17 37 -17 7 -33 -6 -41 -30 -12 -37 -17 -35 -64 31 -28 40 -66
73 -83 75 -98 7 -125 15 -190 56 -39 24 -81 38 -94 30 -16 -10 -16 -2 1 29 22
41 9 53 -46 44 -9 -2 -21 16 -27 39 -7 26 -22 37 -41 30 -22 -9 -27 -1 -19 30
8 31 3 39 -17 31 -45 -17 -89 8 -89 50 0 22 -15 39 -35 41 -19 2 -47 4 -61 5
-40 3 -74 72 -36 72 16 0 35 8 41 18 6 9 -1 17 -14 17 -76 -3 -115 8 -115 33
0 15 -14 33 -30 39 -25 10 -27 19 -6 51 34 56 -14 141 -88 156 -30 6 -50 20
-43 31 7 12 -11 14 -50 6 -84 -19 -90 53 -8 98 30 16 44 30 30 30 -51 2 -23
41 30 42 52 0 53 2 17 29 -21 16 -46 24 -55 18 -9 -6 -17 21 -17 59 0 50 10
73 35 79 21 6 12 10 -22 12 -37 1 -60 15 -66 39 -7 27 -23 34 -59 28 -54 -11
-56 -8 -28 64 22 60 -35 75 -80 21 -14 -16 -33 -30 -42 -30 -29 0 -21 54 12
87 33 34 41 153 10 153 -11 0 -20 -14 -20 -31 0 -16 -13 -35 -30 -42 -16 -6
-30 -33 -30 -59 0 -37 -11 -48 -48 -48 -77 0 -77 66 0 151 38 41 68 86 68 101
0 42 42 214 62 253 34 67 18 80 -35 28 -29 -29 -59 -53 -67 -53 -42 0 -78 -98
-60 -162 23 -79 10 -99 -30 -47 -22 30 -29 32 -29 9 -1 -17 17 -42 39 -55 22
-14 40 -34 40 -45 0 -34 -50 -22 -80 19 -19 27 -42 36 -71 29 -38 -10 -43 -4
-34 40 5 29 18 52 27 52 10 0 18 14 18 30 0 36 32 40 48 5 6 -14 6 -2 -1 25
-17 68 -27 76 -49 35 -11 -19 -38 -35 -59 -35 -43 0 -53 32 -14 45 14 5 26 21
27 37 1 15 3 43 5 61 5 56 80 60 109 5 24 -46 25 -44 25 30 0 55 -11 85 -38
102 -33 20 -37 19 -27 -8 11 -27 7 -28 -26 -7 -33 20 -34 27 -9 40 33 19 40
75 9 75 -11 0 -20 -13 -20 -30 0 -16 -11 -30 -25 -30 -14 0 -45 -6 -69 -12
-72 -20 -84 75 -18 146 74 79 75 196 2 178 -56 -14 -56 -13 -32 93 14 61 12
75 -12 75 -16 0 -25 11 -20 25 5 14 19 23 32 20 12 -3 22 4 22 15 0 11 -9 20
-21 20 -11 0 -18 16 -15 35 5 26 -10 37 -59 41 -49 5 -65 -1 -65 -26z m240
-760 c-23 -27 -28 -27 -50 3 -19 27 -18 41 8 71 31 36 32 36 50 -3 12 -27 9
-50 -8 -71z m506 -791 c-7 -23 4 -57 25 -80 34 -38 34 -39 -11 -39 -25 0 -57
16 -71 35 -19 26 -50 34 -118 32 -52 -2 -87 4 -80 15 6 10 28 18 48 18 20 0
67 13 104 29 93 41 115 38 103 -10z"/>
<path d="M6493 3851 c-18 -47 8 -81 62 -83 31 -1 45 10 45 37 0 21 -9 32 -21
24 -12 -7 -33 3 -47 22 -24 33 -26 33 -39 0z"/>
<path d="M2504 3803 c-18 -12 -20 -30 -7 -65 16 -41 21 -43 33 -14 20 50 5 98
-26 79z"/>
<path d="M1812 3763 c-7 -11 -7 -36 -1 -56 7 -21 -2 -15 -19 13 -17 28 -31 38
-31 24 -1 -36 -43 -76 -97 -93 -25 -8 -40 -22 -34 -31 21 -34 -33 -43 -68 -12
-44 40 -62 23 -62 -58 0 -34 -17 -81 -37 -103 -31 -32 -33 -46 -13 -73 27 -38
53 -25 36 18 -5 15 0 28 12 28 12 0 22 19 22 42 0 30 9 39 32 30 21 -8 35 1
42 28 11 40 29 49 86 41 40 -6 102 -62 89 -82 -5 -9 -2 -21 8 -27 10 -7 23 6
29 28 6 22 2 40 -8 40 -10 0 -18 10 -18 22 0 52 50 -1 54 -58 5 -54 -58 -129
-89 -107 -3 1 -25 2 -50 2 l-45 -2 45 -18 c25 -10 59 -13 75 -6 17 6 30 0 30
-14 0 -14 6 -20 13 -13 24 24 87 -28 127 -106 39 -77 152 -180 198 -180 13 0
29 -14 35 -31 9 -22 19 -24 38 -9 19 17 28 8 39 -39 16 -74 50 -61 50 20 0 44
-14 65 -60 89 -82 42 -180 142 -180 182 0 19 -21 62 -47 96 -64 84 -88 192
-43 192 21 0 27 9 16 25 -8 14 -29 66 -46 115 -29 88 -98 132 -128 83z"/>
<path d="M2947 3612 c6 -16 -3 -34 -19 -40 -20 -8 -28 -36 -25 -90 3 -44 -8
-95 -24 -115 -18 -24 -10 -21 23 8 35 31 51 66 52 117 1 40 12 82 24 94 31 31
27 54 -10 54 -20 0 -28 -11 -21 -28z"/>
<path d="M6420 3598 c0 -19 74 -98 91 -98 3 0 1 16 -4 36 -11 43 -87 97 -87
62z"/>
<path d="M2753 3554 c-64 -76 -77 -121 -54 -181 26 -67 61 -52 61 27 0 32 9
63 20 70 41 25 60 85 34 107 -18 14 -35 8 -61 -23z"/>
<path d="M6610 3521 c-6 -11 6 -37 28 -59 21 -21 35 -43 30 -48 -5 -5 13 -4
41 1 28 5 51 16 51 24 0 19 -59 94 -59 75 -1 -8 -18 -6 -40 5 -24 14 -43 14
-51 2z"/>
<path d="M1220 3482 c0 -25 59 -70 73 -56 20 21 -10 74 -42 74 -17 0 -31 -8
-31 -18z"/>
<path d="M926 3438 c-30 -11 -42 -29 -36 -56 5 -26 -1 -36 -19 -30 -14 6 -31
-4 -38 -22 -7 -18 -21 -27 -31 -21 -33 20 -110 -111 -108 -183 2 -58 -4 -66
-48 -66 -37 0 -47 -8 -38 -31 6 -17 -1 -51 -16 -75 -24 -38 -24 -48 5 -77 31
-31 33 -29 31 30 -4 81 25 116 82 101 35 -9 49 -1 59 29 8 25 26 38 49 33 24
-4 37 5 37 27 0 91 6 113 23 86 24 -38 48 5 32 56 -8 27 1 47 29 65 23 14 41
36 41 48 0 13 14 34 30 48 51 43 -5 68 -84 38z"/>
<path d="M2864 3306 c-50 -10 -55 -18 -73 -131 -16 -92 -2 -93 96 -7 66 60 73
74 54 110 -12 23 -24 41 -27 39 -2 -1 -25 -6 -50 -11z"/>
<path d="M2216 3230 c-26 -57 -2 -89 68 -90 44 0 35 98 -11 123 -26 15 -38 7
-57 -33z"/>
<path d="M2953 3167 c-20 -21 -16 -87 6 -87 18 0 61 63 61 89 0 15 -50 14 -67
-2z"/>
<path d="M3060 3102 c-33 -9 -52 -30 -57 -63 -3 -27 -30 -68 -60 -92 -66 -54
-48 -78 29 -37 64 33 105 -16 107 -129 1 -48 2 -48 70 20 81 81 88 104 26 89
-59 -15 -106 108 -63 165 49 64 39 72 -52 47z"/>
<path d="M36 2916 c-15 -129 -1 -216 26 -173 13 20 17 21 18 2 0 -14 10 -25
21 -25 12 0 16 9 9 20 -7 11 -3 20 8 20 28 0 3 124 -30 150 -14 11 -28 43 -32
70 -4 28 -13 0 -20 -64z"/>
<path d="M1457 2942 c19 -12 21 -21 5 -31 -12 -7 -22 -22 -22 -32 0 -24 54
-25 69 -1 18 30 -11 82 -46 82 -26 -1 -27 -4 -6 -18z"/>
<path d="M6380 2922 c0 -35 24 -82 42 -82 10 0 18 23 18 50 0 31 -11 50 -30
50 -16 0 -30 -8 -30 -18z"/>
<path d="M8936 2825 c-5 -52 -2 -113 6 -135 10 -25 16 10 17 95 1 156 -11 178
-23 40z"/>
<path d="M1293 2870 c-8 -20 1 -30 25 -30 21 0 43 14 49 30 8 20 -1 30 -25 30
-21 0 -43 -13 -49 -30z"/>
<path d="M6143 2713 c-2 -42 -11 -54 -33 -46 -45 17 -36 -14 18 -65 49 -46 96
-26 55 24 -10 13 -23 51 -28 84 l-9 60 -3 -57z"/>
<path d="M3535 2678 c-41 -23 -46 -71 -10 -84 18 -6 19 -15 3 -32 -15 -17 -37
-18 -75 -3 -34 13 -53 13 -53 1 0 -11 14 -20 30 -20 17 0 30 -8 30 -18 0 -9
-13 -28 -30 -42 -16 -14 -30 -34 -30 -44 0 -36 -83 -126 -125 -137 -23 -5 -46
-23 -52 -40 -8 -25 -5 -25 24 -1 29 23 42 24 84 2 54 -29 65 -60 21 -60 -38 0
-79 -54 -65 -88 18 -47 91 -13 124 58 20 42 60 78 111 101 56 25 72 41 54 53
-20 13 -18 21 9 37 37 22 49 79 16 79 -23 0 -74 -50 -86 -85 -5 -14 -17 -18
-26 -10 -9 9 -6 26 7 39 13 13 24 43 24 66 0 23 18 76 39 119 45 86 32 140
-24 109z"/>
<path d="M780 2611 c0 -49 54 -76 65 -33 7 26 -2 42 -27 48 -23 6 -38 0 -38
-15z"/>
<path d="M3064 2596 c-50 -50 -27 -74 38 -42 47 23 55 35 35 48 -36 23 -45 22
-73 -6z"/>
<path d="M653 2563 c-44 -48 -42 -62 9 -48 24 6 49 -1 59 -16 13 -21 22 -22
47 -1 24 20 26 33 6 64 -30 48 -78 49 -121 1z"/>
<path d="M6320 2489 c0 -18 9 -49 21 -70 14 -28 14 -39 -2 -39 -13 0 -28 18
-33 41 -8 30 -21 37 -53 27 -65 -20 -67 -28 -18 -68 25 -20 45 -46 45 -58 0
-12 23 -22 50 -22 28 0 50 -11 50 -23 0 -13 23 -3 51 24 64 60 45 233 -20 179
-20 -15 -29 -13 -38 9 -15 40 -53 40 -53 0z"/>
<path d="M3960 2469 c-14 -15 -32 -24 -42 -18 -10 6 -12 -3 -6 -20 12 -29 36
-40 74 -33 10 2 12 -5 6 -15 -6 -10 10 -23 37 -28 41 -8 71 15 71 53 0 34
-120 86 -140 61z"/>
<path d="M6480 2442 c0 -21 78 -118 79 -98 2 28 -46 116 -62 116 -9 0 -17 -8
-17 -18z"/>
<path d="M887 2400 c7 -27 13 -57 13 -65 0 -29 40 -15 40 14 0 18 12 25 30 18
17 -6 30 -1 30 11 0 12 -16 22 -36 22 -20 0 -48 11 -63 25 -22 21 -24 16 -14
-25z"/>
<path d="M4633 2375 c7 -36 21 -82 31 -102 11 -20 14 -42 8 -48 -7 -6 -12 -1
-12 12 0 13 -10 21 -23 18 -13 -3 -29 17 -36 44 -22 85 -108 16 -110 -89 -1
-11 -21 -23 -45 -26 -52 -8 -13 101 44 123 17 7 30 22 30 34 0 12 -23 4 -50
-18 -47 -37 -55 -37 -113 -9 -51 26 -64 27 -78 4 -18 -28 -49 -11 -49 27 0 36
-49 41 -62 7 -7 -18 -25 -32 -41 -32 -15 0 -33 -13 -40 -30 -6 -16 -20 -24
-31 -17 -11 6 -8 -10 6 -36 15 -26 24 -58 21 -72 -2 -14 10 -25 27 -25 18 0
27 9 20 20 -19 31 13 23 53 -13 31 -28 126 -48 237 -52 17 0 43 -10 58 -23 21
-16 31 -16 37 3 11 34 41 32 78 -6 25 -24 26 -36 6 -60 -44 -54 -3 -55 51 -1
28 29 69 52 91 52 21 0 39 10 39 21 0 12 10 15 22 8 12 -8 18 -35 13 -61 -6
-32 0 -48 19 -48 16 0 23 8 17 18 -24 40 13 82 61 70 39 -10 48 -5 48 27 0 54
91 54 129 1 27 -39 27 -39 41 3 9 29 24 39 49 31 20 -6 47 3 61 20 19 23 30
26 41 8 11 -17 30 -16 75 7 50 25 59 25 50 3 -5 -16 1 -28 14 -28 16 0 22 24
16 70 -5 47 0 70 17 70 15 0 21 13 14 30 -8 21 -21 24 -45 11 -21 -11 -46 -11
-63 0 -45 28 -59 23 -59 -24 0 -40 -3 -39 -43 12 -38 49 -45 51 -62 22 -16
-30 -23 -30 -52 -6 -68 59 -109 61 -94 4 7 -32 5 -48 -7 -40 -10 6 -23 -9 -28
-34 -7 -41 -10 -40 -36 20 -15 37 -41 65 -58 63 -16 -1 -34 -1 -40 1 -44 16
-140 17 -140 1 0 -11 -9 -20 -20 -20 -11 0 -20 18 -20 39 0 22 -18 49 -40 61
-36 19 -38 16 -27 -45z"/>
<path d="M750 2400 c-7 -12 2 -14 22 -6 20 7 30 5 23 -7 -7 -10 -4 -32 6 -48
11 -17 19 -19 19 -6 0 13 5 38 12 55 14 36 -60 47 -82 12z"/>
<path d="M8925 2319 c0 -43 8 -79 18 -79 9 0 17 31 17 69 0 38 -8 73 -17 79
-10 6 -18 -25 -18 -69z"/>
<path d="M5814 2340 c-6 -22 -2 -45 8 -51 35 -22 18 -52 -22 -39 -66 21 -47
-35 40 -120 78 -76 116 -149 43 -83 -39 36 -83 44 -83 15 0 -9 14 -28 30 -42
17 -14 45 -57 64 -95 l32 -69 32 52 c30 51 92 70 105 34 15 -40 87 -31 107 13
11 25 36 50 55 57 20 6 30 19 24 29 -18 29 -81 22 -109 -11 -14 -16 -33 -30
-42 -30 -10 0 -18 14 -18 30 0 17 -18 30 -40 30 -26 0 -49 20 -61 53 -11 30
-36 65 -55 79 -26 20 -29 34 -13 60 16 27 11 44 -26 81 -57 57 -58 57 -71 7z"/>
<path d="M3651 2262 c-8 -13 -25 -21 -38 -16 -13 4 -34 -19 -48 -51 -18 -42
-34 -55 -60 -47 -40 13 -98 -57 -65 -78 43 -27 22 -73 -22 -49 -42 23 -83 8
-47 -17 10 -8 22 -32 26 -54 4 -22 17 -46 30 -54 83 -52 83 -52 36 -90 -40
-32 -42 -40 -16 -75 21 -30 36 -34 56 -18 74 58 108 45 100 -41 -4 -45 -1 -76
6 -69 8 7 37 1 66 -14 37 -19 63 -21 90 -6 87 46 123 -22 56 -107 -34 -44 -35
-49 -5 -47 19 0 34 -7 34 -17 0 -50 149 -55 151 -5 2 68 53 93 78 38 13 -30
18 -48 10 -40 -18 17 -69 -20 -69 -50 0 -10 14 -14 30 -8 21 8 30 -1 30 -29 0
-24 10 -38 25 -33 13 4 38 -5 53 -20 19 -19 52 -25 95 -18 36 6 72 2 78 -9 14
-21 49 -5 49 23 0 11 -20 19 -44 19 -43 0 -43 1 -5 29 51 39 76 39 62 0 -15
-36 47 -93 111 -103 116 -19 149 -19 190 -4 35 13 47 8 57 -24 12 -39 15 -39
50 -7 35 32 39 32 51 2 17 -46 43 -41 59 11 l14 44 38 -46 c30 -38 43 -42 66
-23 16 13 50 21 75 18 62 -8 96 16 98 69 2 34 5 36 12 9 12 -47 51 -44 82 5
18 29 38 37 72 29 32 -8 50 -2 59 20 6 17 3 31 -8 31 -24 0 -24 120 0 159 15
24 23 19 40 -26 26 -70 27 -127 1 -143 -34 -21 -22 -50 20 -50 27 0 40 13 40
41 0 24 9 36 21 28 12 -7 17 -25 11 -40 -6 -17 0 -23 19 -16 33 13 40 87 8 87
-13 0 -16 17 -9 40 7 22 4 40 -7 40 -12 0 -14 22 -6 55 14 49 14 66 6 121 -12
70 -89 120 -129 82 -23 -21 -53 -38 -68 -38 -14 0 -26 -13 -26 -30 0 -36 33
-40 47 -5 7 19 15 18 31 -5 15 -22 14 -36 -3 -50 -14 -12 -35 -39 -47 -60 -27
-49 -87 -63 -112 -27 -14 19 -15 12 -6 -23 36 -139 34 -183 -9 -156 -23 14
-41 40 -41 58 0 18 -18 55 -40 83 -22 28 -40 66 -40 84 0 20 -9 28 -23 19 -16
-10 -19 2 -9 39 9 40 4 57 -19 66 -18 7 -40 32 -49 55 -13 31 -18 34 -19 9 0
-19 -26 -43 -56 -54 -35 -12 -42 -20 -20 -21 19 -1 35 -11 35 -22 0 -12 22
-31 48 -43 56 -25 149 -190 137 -242 -11 -49 -43 -44 -63 10 -21 58 -43 57
-65 -1 -12 -34 -27 -44 -55 -35 -21 7 -44 3 -51 -8 -22 -34 -51 -24 -51 18 0
21 -9 44 -20 51 -11 7 -20 2 -20 -10 0 -12 -9 -17 -21 -9 -15 9 -14 20 0 38
12 14 16 42 8 62 -9 24 -6 31 10 21 14 -9 23 -2 23 16 0 19 -11 26 -30 19 -16
-6 -30 -18 -30 -27 0 -9 -11 -20 -25 -25 -19 -7 -25 30 -25 149 0 88 -7 164
-15 169 -14 9 -17 -12 -25 -163 -10 -193 -49 -282 -94 -211 -25 40 -25 40 -70
-3 l-46 -43 0 48 0 48 -31 -45 c-32 -46 -89 -60 -89 -22 0 12 -11 17 -25 12
-14 -5 -23 -19 -20 -32 3 -12 -8 -22 -25 -22 -37 0 -41 92 -5 107 15 6 7 16
-20 24 -44 13 -63 49 -27 49 10 0 33 5 50 12 24 9 32 0 33 -35 0 -43 2 -44 27
-12 30 40 72 47 72 11 0 -24 58 42 59 68 1 15 -93 8 -110 -9 -16 -16 -89 6
-89 27 0 36 -58 17 -70 -23 -8 -23 -28 -39 -47 -36 -57 8 -159 -24 -171 -54
-6 -16 -22 -28 -36 -27 -20 1 -21 3 -1 11 19 8 18 20 -4 52 -30 43 -22 143 15
190 11 14 14 31 8 38 -21 20 -77 -11 -87 -49 -5 -20 -28 -48 -51 -62 -37 -23
-40 -22 -29 8 18 48 -6 130 -39 130 -15 0 -28 -18 -28 -40 0 -47 -25 -52 -59
-12 -22 28 35 107 83 115 9 1 25 4 36 7 11 3 29 6 39 8 26 3 68 82 52 97 -6 7
-37 -13 -69 -43 -43 -41 -70 -52 -101 -42 -25 7 -56 3 -73 -11 -24 -20 -35
-20 -54 0 -17 19 -18 28 -2 34 67 25 95 65 92 134 -2 50 10 84 38 111 34 31
36 41 13 55 -16 9 -38 34 -49 55 -14 26 -25 30 -35 14z m-32 -226 c57 -60 52
-74 -27 -70 -67 4 -81 33 -16 35 25 1 22 7 -11 20 -25 10 -45 27 -45 38 0 36
57 23 99 -23z m575 -631 c2 -19 10 -62 17 -95 l14 -60 -50 57 c-30 35 -46 73
-40 95 12 48 55 50 59 3z m566 17 c0 -35 -24 -82 -42 -82 -10 0 -18 23 -18 50
0 31 11 50 30 50 17 0 30 -8 30 -18z"/>
<path d="M6273 2266 c-26 -25 -12 -50 20 -37 19 7 41 1 50 -13 24 -39 20 -56
-13 -56 -40 0 -38 -27 7 -67 51 -46 54 -43 58 47 3 78 -82 166 -122 126z"/>
<path d="M2468 2125 c-90 -134 -121 -183 -140 -225 -8 -16 -33 -57 -56 -90
-58 -81 -86 -129 -122 -205 -17 -36 -39 -65 -50 -65 -40 0 -19 -41 30 -60 28
-10 50 -33 50 -50 0 -39 -34 -38 -75 2 -31 31 -103 -22 -105 -78 0 -9 -15 -32
-33 -50 -30 -30 -29 -33 19 -49 48 -16 92 -75 55 -75 -10 0 -32 -5 -49 -12
-23 -9 -32 0 -32 30 0 23 -9 42 -20 42 -11 0 -20 -14 -20 -31 0 -18 -13 -45
-30 -62 -40 -40 -38 -61 5 -59 38 2 45 -8 45 -68 0 -34 -6 -37 -36 -18 -30 19
-47 14 -91 -28 -38 -35 -47 -53 -29 -60 20 -8 20 -11 1 -12 -14 -1 -25 -19
-25 -39 0 -40 -59 -103 -97 -103 -12 0 -23 -18 -23 -40 0 -31 13 -40 60 -40
40 0 60 -10 60 -30 0 -35 -18 -37 -92 -9 -45 17 -62 13 -101 -24 -54 -51 -60
-77 -17 -77 31 0 40 -24 17 -46 -7 -8 -24 -5 -38 6 -45 38 -81 -34 -39 -80 36
-40 -42 -100 -91 -70 -21 14 -65 -64 -50 -89 6 -9 28 -13 48 -8 22 6 42 -2 49
-21 12 -30 -47 -30 -142 0 -14 4 -21 -1 -14 -12 12 -19 -42 -117 -80 -145 -11
-9 40 -14 114 -12 127 3 137 6 206 80 92 97 92 171 0 161 l-59 -7 56 44 c41
33 62 38 78 22 33 -33 95 -28 95 8 0 16 12 35 28 41 15 6 33 47 40 91 9 57 25
84 53 91 21 6 39 22 39 35 0 14 18 41 40 61 22 20 40 52 40 72 0 19 14 49 30
65 17 17 30 40 30 52 0 11 9 21 20 21 11 0 20 23 20 50 0 37 11 50 40 50 29 0
40 13 40 50 0 28 9 50 20 50 11 0 20 14 20 30 0 17 7 30 16 30 16 0 71 119 67
145 -2 8 20 29 47 47 28 18 50 45 50 60 0 16 10 28 23 28 13 0 19 5 12 11 -6
7 15 38 46 70 34 34 53 72 46 89 -9 25 58 70 104 70 18 0 8 -98 -11 -110 -11
-7 -20 -48 -20 -92 0 -55 -7 -76 -23 -66 -16 10 -19 -7 -9 -59 9 -46 6 -73 -7
-73 -12 0 -21 10 -21 21 0 12 -9 16 -20 9 -29 -18 -24 -55 5 -38 15 8 18 7 8
-4 -9 -10 -25 -19 -35 -20 -10 -2 -27 -4 -38 -5 -11 -2 -20 -21 -20 -44 0 -22
-14 -46 -32 -52 -42 -16 83 -127 142 -127 37 1 37 3 -7 37 l-48 37 48 45 c32
31 39 49 22 55 -30 11 -34 66 -4 66 11 0 28 20 38 45 l18 45 2 -44 c1 -30 10
-41 29 -34 46 18 55 -26 22 -104 -35 -85 -24 -113 22 -57 30 38 31 38 21 -6
-5 -25 -1 -40 9 -34 10 6 18 2 18 -10 0 -11 -10 -21 -22 -21 -16 0 -15 -9 2
-30 13 -16 19 -44 12 -63 -11 -27 -8 -29 18 -7 24 20 30 20 31 -3 1 -15 4 -67
9 -117 4 -49 -2 -101 -14 -115 -15 -18 -14 -25 2 -25 31 0 28 -140 -5 -244
-15 -47 -29 -125 -31 -173 -2 -48 -18 -109 -36 -136 -17 -26 -28 -51 -24 -55
16 -15 438 -25 438 -11 0 8 -28 67 -61 132 -47 88 -60 135 -53 192 5 42 2 80
-7 86 -9 5 -16 60 -16 121 0 110 -18 189 -114 498 -84 273 -165 671 -179 880
-21 319 -39 337 -162 155z m-132 -482 c6 -18 -8 -24 -47 -20 -31 4 -60 19 -65
34 -6 18 8 24 47 20 31 -4 60 -19 65 -34z m-216 -333 c0 -32 -18 -37 -68 -18
-49 19 -38 48 18 48 31 0 50 -11 50 -30z m-230 -480 c0 -25 -15 -42 -42 -46
-38 -5 -47 24 -30 92 7 27 72 -15 72 -46z"/>
<path d="M2195 2208 c-19 -19 7 -68 35 -68 15 0 30 -9 33 -19 4 -12 18 -13 36
-2 24 15 18 23 -26 40 -30 11 -50 30 -43 41 13 21 -15 28 -35 8z"/>
<path d="M8938 1990 c-5 -56 -8 -67 -23 -82 -26 -25 -16 -68 15 -68 22 0 30
23 30 90 0 83 -17 128 -22 60z"/>
<path d="M4108 1891 c-10 -24 -27 -31 -61 -22 -26 7 -47 3 -47 -9 0 -11 -10
-18 -22 -15 -13 3 -28 -8 -33 -23 -8 -22 5 -26 61 -17 46 8 75 4 82 -11 6 -16
18 -11 33 13 22 35 24 35 51 -4 17 -24 42 -36 59 -30 19 7 29 -1 29 -25 0 -31
11 -26 62 25 40 39 57 72 47 88 -12 19 -20 18 -37 -5 -36 -48 -127 -38 -172
19 -34 43 -41 45 -52 16z"/>
<path d="M5343 1893 c-18 -21 -14 -35 16 -62 22 -20 33 -48 26 -66 -8 -21 -4
-27 11 -17 14 8 20 43 14 85 -7 61 -5 67 21 46 33 -27 61 -14 40 20 -19 30
-102 26 -128 -6z"/>
<path d="M5580 1900 c-26 -16 -23 -25 17 -64 44 -43 46 -44 40 -6 -3 22 1 51
10 65 18 30 -23 33 -67 5z"/>
<path d="M4817 1850 c-17 -247 -12 -283 35 -283 27 0 29 20 17 141 -15 160
-45 241 -52 142z"/>
<path d="M5525 1812 c19 -14 35 -33 35 -40 0 -38 73 -86 110 -73 36 14 34 18
-22 47 -33 17 -73 45 -87 63 -14 17 -36 31 -48 30 -13 0 -7 -12 12 -27z"/>
<path d="M7571 1822 c-6 -10 -28 -14 -48 -9 -26 7 -41 -3 -48 -31 -8 -28 -27
-42 -61 -42 -27 0 -60 -14 -74 -30 -19 -23 -32 -25 -53 -8 -20 17 -27 17 -27
0 0 -13 -27 -20 -65 -17 -87 7 -103 -66 -27 -116 96 -62 178 -68 242 -17 32
25 65 41 74 36 9 -6 16 -1 16 11 0 11 17 21 39 21 21 0 45 10 53 23 9 14 5 18
-9 9 -24 -15 -33 31 -10 54 13 14 28 134 16 134 -4 0 -12 -8 -18 -18z"/>
<path d="M5188 1730 c-14 -58 -4 -75 51 -84 35 -5 37 1 18 54 -28 81 -53 92
-69 30z"/>
<path d="M51 1662 c-7 -12 -18 -564 -14 -675 3 -67 67 -77 91 -15 6 15 19 28
30 28 20 0 19 -37 -2 -70 -7 -12 25 -22 83 -24 69 -2 94 4 94 25 0 34 -55 55
-100 37 -18 -7 -33 -2 -33 10 0 12 9 22 20 22 11 0 1 36 -22 80 -48 91 -67
102 -53 31 5 -28 2 -45 -8 -39 -9 6 -17 29 -17 53 0 23 -16 59 -35 81 -34 37
-33 40 9 68 42 28 43 34 15 88 -17 32 -30 88 -29 123 1 125 4 134 40 115 24
-13 33 -10 33 10 0 16 -7 24 -16 18 -10 -6 -17 2 -17 17 0 27 -55 40 -69 17z"/>
<path d="M3990 1659 c-9 -13 -4 -30 10 -39 19 -12 19 -17 -1 -24 -14 -4 -21
-18 -17 -31 6 -16 19 -14 45 5 34 25 34 31 7 70 -21 30 -34 36 -44 19z"/>
<path d="M4902 1554 c-35 -35 -26 -58 17 -44 24 7 45 0 57 -22 16 -29 19 -26
19 17 0 56 -56 86 -93 49z"/>
<path d="M3095 1528 c-12 -20 54 -112 69 -97 5 5 21 -14 36 -41 15 -28 38 -50
52 -50 40 0 1 109 -42 117 -20 4 -52 26 -70 48 -19 23 -39 33 -45 23z"/>
<path d="M6640 1341 c0 -22 19 -50 42 -62 59 -32 75 -5 20 34 -36 25 -40 36
-19 49 21 14 19 17 -8 18 -22 0 -35 -15 -35 -39z"/>
<path d="M7320 1355 c0 -31 133 -141 189 -156 25 -7 40 -27 37 -50 -2 -21 7
-45 20 -53 18 -11 17 -15 -2 -16 -15 0 -21 -9 -14 -20 7 -12 30 -8 59 11 29
19 66 26 99 18 62 -16 49 -49 -19 -49 -33 0 -49 -11 -49 -35 1 -65 34 -90 118
-90 69 0 82 -7 84 -43 3 -42 2 -49 -17 -122 -10 -37 -7 -37 40 7 54 49 99 26
54 -28 -13 -16 -21 -30 -16 -31 62 -12 75 -11 65 5 -6 10 -1 31 11 46 16 19
16 31 2 40 -35 22 -25 77 11 63 17 -7 39 -7 49 -1 23 14 1 69 -28 69 -13 1
-36 30 -53 65 -18 40 -45 65 -68 65 -22 0 -40 16 -44 37 -5 38 -47 76 -123
112 -25 11 -67 31 -93 43 -27 13 -60 16 -73 7 -18 -11 -22 -6 -13 17 8 22 3
29 -17 21 -16 -6 -60 12 -98 41 -75 57 -111 66 -111 27z"/>
<path d="M1688 1334 c-46 -23 -99 -141 -78 -174 29 -46 -36 -160 -91 -160 -29
0 -69 -18 -90 -41 -20 -22 -49 -36 -63 -30 -17 6 -40 -16 -59 -58 -20 -42 -43
-64 -60 -57 -15 6 -27 2 -27 -8 0 -10 -31 -29 -70 -43 -38 -14 -70 -34 -70
-44 0 -11 -14 -19 -31 -19 -18 0 -28 -14 -25 -34 4 -22 -9 -37 -34 -41 -99
-16 -131 -27 -121 -43 41 -66 -71 -142 -208 -142 -30 0 -70 -17 -89 -38 -19
-21 -80 -58 -135 -82 -86 -37 -96 -46 -69 -66 19 -14 34 -56 36 -99 2 -70 52
-112 59 -50 2 14 4 34 6 45 1 11 9 30 17 43 8 13 9 37 3 54 -8 20 9 39 54 60
68 30 113 38 415 80 157 22 214 51 163 82 -58 36 -22 96 49 82 51 -9 70 -6 71
13 0 14 41 51 90 83 49 31 89 64 89 74 0 10 28 49 62 88 33 38 56 78 49 89 -6
10 24 47 68 81 43 34 85 81 92 103 8 28 23 36 49 28 61 -19 96 65 42 103 -32
22 -37 38 -23 76 27 70 6 84 -71 45z"/>
<path d="M6160 1340 c0 -11 -14 -20 -31 -20 -17 0 -26 -9 -19 -20 7 -11 -1
-15 -18 -8 -17 7 -40 -6 -56 -30 -27 -44 -76 -57 -76 -21 0 12 -9 16 -20 9
-11 -7 -20 -32 -20 -56 1 -35 4 -38 19 -14 13 19 26 23 39 10 12 -13 2 -41
-30 -80 -30 -38 -54 -52 -63 -39 -21 31 -85 52 -85 28 0 -10 11 -19 23 -19 55
0 -17 -31 -88 -38 -23 -3 -18 -62 5 -62 11 0 20 10 20 21 0 13 17 16 41 9 23
-8 69 -3 101 11 33 13 65 19 71 13 14 -15 -42 -74 -70 -74 -10 0 -15 -18 -9
-40 12 -44 23 -48 64 -22 15 10 21 28 13 41 -9 15 1 28 26 34 23 6 36 22 30
37 -5 15 8 32 31 39 26 8 36 24 28 44 -9 23 0 29 36 24 61 -9 78 -77 20 -77
-28 0 -37 -9 -29 -30 6 -17 -3 -35 -21 -42 -18 -7 -32 -25 -32 -41 0 -15 -13
-33 -29 -39 -16 -6 -24 -23 -18 -38 19 -50 -32 -51 -111 -1 -43 27 -85 68 -92
90 -15 47 -25 49 -80 15 -66 -40 -60 -108 12 -118 33 -5 64 -2 70 7 16 26 48
20 48 -10 0 -14 20 -25 45 -25 32 2 45 -9 45 -38 0 -28 -12 -39 -40 -36 -22 3
-29 0 -15 -6 48 -22 30 -92 -20 -78 -39 10 -40 9 -10 -10 44 -28 46 -80 3 -80
-27 0 -28 -5 -8 -30 20 -24 16 -33 -23 -48 -41 -16 -43 -20 -12 -32 49 -20 44
-50 -8 -50 -42 0 -42 -1 -7 -40 34 -38 34 -40 -10 -56 -39 -15 -41 -19 -13
-30 41 -16 43 -54 3 -54 -39 0 -39 -32 1 -48 46 -17 16 -52 -47 -54 -41 -2
-45 -5 -14 -12 22 -5 51 -23 64 -40 20 -26 34 -27 80 -8 69 28 121 122 69 122
-26 1 -22 9 15 38 33 25 42 45 30 64 -29 47 -33 124 -6 107 17 -11 21 -2 13
29 -15 58 41 223 91 267 29 25 32 35 12 36 -16 0 -2 22 32 50 33 27 53 49 44
49 -9 0 7 25 35 55 28 30 51 66 51 81 0 14 8 21 18 15 17 -10 133 72 167 119
8 11 9 36 3 56 -7 22 -2 33 15 30 14 -4 26 3 26 14 1 11 9 31 17 45 12 19 -8
25 -79 25 -98 0 -102 43 -4 50 25 2 48 14 53 27 13 40 -147 27 -225 -19 -39
-23 -71 -33 -71 -21 0 12 16 30 35 41 31 19 30 21 -10 21 -25 1 -45 -8 -45
-19z m180 -120 c27 -51 10 -80 -47 -80 -25 0 -55 -10 -67 -22 -30 -30 -66 -6
-66 43 0 25 14 39 38 39 21 0 43 14 49 30 17 43 68 37 93 -10z"/>
<path d="M3120 1262 c0 -10 18 -39 39 -65 41 -49 57 -21 29 51 -13 34 -68 45
-68 14z"/>
<path d="M3334 1222 c9 -49 6 -64 -11 -54 -13 8 -17 25 -9 38 8 14 -1 12 -20
-3 -64 -52 -32 -149 42 -130 35 9 40 18 22 39 -18 23 -14 28 24 28 36 0 41 5
22 24 -13 13 -24 41 -24 61 0 21 -8 32 -18 26 -10 -6 -23 0 -29 14 -6 14 -5
-6 1 -43z"/>
<path d="M1165 1246 c-25 -5 -40 -17 -34 -27 6 -11 2 -19 -10 -19 -11 0 -21
-9 -21 -20 0 -11 14 -20 30 -20 17 0 30 14 30 31 0 17 9 26 20 19 11 -7 34 2
52 19 33 33 25 35 -67 17z"/>
<path d="M5488 1237 c-17 -28 40 -40 93 -21 46 18 46 18 -17 28 -36 5 -70 2
-76 -7z"/>
<path d="M7280 1211 c0 -61 21 -75 64 -43 32 23 31 27 -5 58 -52 45 -59 43
-59 -15z"/>
<path d="M737 1183 c-35 -69 -62 -87 -83 -57 -10 14 -12 -8 -5 -51 12 -70 9
-75 -37 -75 -27 0 -63 -13 -79 -30 -38 -38 -61 -39 -46 -1 7 20 1 25 -19 18
-22 -9 -24 -18 -6 -39 18 -22 16 -28 -9 -28 -20 0 -27 -11 -20 -30 14 -38 67
-39 67 -2 0 15 14 33 31 40 19 7 26 3 18 -9 -14 -23 66 -18 106 8 14 8 25 9
25 2 0 -8 14 -3 30 11 25 20 30 19 30 -8 0 -50 40 -38 42 13 2 25 2 52 0 60
-3 21 3 19 75 -16 35 -18 63 -45 63 -60 0 -47 102 -24 104 23 2 40 21 67 40
55 13 -7 15 6 7 35 -10 36 -8 41 7 19 23 -35 48 -16 52 39 5 60 -52 68 -100
12 -48 -55 -86 -45 -80 23 4 48 -20 61 -37 20 -8 -20 -10 -20 -11 0 -1 14 -15
25 -32 25 -16 0 -30 8 -30 18 0 46 -77 35 -103 -15z"/>
<path d="M7176 1142 c-10 -65 10 -97 89 -148 58 -37 77 -17 25 26 -16 14 -30
36 -30 50 0 14 -14 31 -32 38 -18 7 -27 25 -21 42 6 16 4 33 -6 39 -9 6 -20
-15 -25 -47z"/>
<path d="M6635 1166 c-48 -12 -44 -66 5 -66 27 0 40 13 40 40 0 22 -2 39 -5
38 -3 -2 -21 -7 -40 -12z"/>
<path d="M494 1099 c-24 -34 -31 -36 -41 -10 -15 39 -147 36 -162 -5 -11 -28
39 -82 78 -83 10 -1 1 12 -20 29 -38 29 29 28 125 -1 14 -4 30 1 36 11 6 10
23 14 38 8 15 -6 32 4 39 21 6 17 2 31 -9 31 -11 0 -15 9 -8 20 24 39 -48 19
-76 -21z"/>
<path d="M7408 1091 c41 -64 40 -71 -8 -71 -53 0 -51 -34 3 -51 68 -22 101 37
63 112 -16 32 -43 59 -60 59 -27 0 -27 -6 2 -49z"/>
<path d="M3640 1070 c54 -57 74 -53 41 8 -12 23 -37 42 -55 42 -27 0 -24 -9
14 -50z"/>
<path d="M8041 1006 c101 -107 155 -160 199 -193 17 -13 45 -50 63 -82 18 -32
72 -79 120 -105 53 -28 88 -61 89 -84 5 -85 26 -107 88 -95 59 12 88 -28 41
-56 -33 -21 1 -71 49 -71 30 0 50 15 58 45 l13 45 38 -45 c20 -25 49 -45 63
-45 13 0 18 -6 11 -14 -8 -7 -55 -13 -105 -12 -112 3 -116 -45 -8 -99 50 -25
68 -46 64 -75 -7 -42 60 -57 108 -25 47 31 53 140 11 182 -32 32 -34 42 -11
51 36 14 36 80 -1 111 -33 27 -19 88 16 67 13 -8 11 2 -4 20 -16 19 -45 34
-65 34 -21 0 -38 7 -38 16 0 30 -338 264 -440 303 -27 11 -95 47 -150 80 -55
33 -122 69 -150 81 -27 11 -66 29 -85 40 -69 40 -62 18 26 -74z m833 -578 c-5
-6 -38 7 -74 29 -54 33 -58 41 -27 47 36 8 121 -56 101 -76z m59 -244 c4 -28
-4 -44 -22 -44 -37 0 -58 34 -43 73 17 42 57 24 65 -29z"/>
<path d="M2228 1037 c-8 -14 -5 -28 7 -32 13 -4 18 -20 12 -35 -13 -34 51
-134 76 -118 10 6 13 29 6 50 -7 25 -1 42 20 50 35 14 42 79 11 98 -11 7 -26
-2 -32 -19 -14 -35 -51 -43 -43 -8 7 32 -38 44 -57 14z"/>
<path d="M6975 1025 c-19 -4 -35 -15 -35 -24 0 -27 53 -62 70 -46 9 8 11 -1 4
-20 -16 -43 17 -47 34 -4 6 17 20 27 30 20 23 -14 72 45 53 64 -16 16 -103 22
-156 10z"/>
<path d="M5111 972 c-65 -51 -44 -83 35 -53 28 10 55 14 61 8 5 -6 5 8 -1 31
-16 62 -32 65 -95 14z"/>
<path d="M3759 928 c-23 -43 -23 -53 2 -69 47 -30 59 -22 59 40 0 78 -28 91
-61 29z"/>
<path d="M7204 957 c5 -15 28 -30 52 -33 36 -6 39 -14 23 -57 -16 -42 -11 -57
26 -87 54 -44 82 -4 53 74 -10 28 -8 47 8 53 13 5 8 11 -12 11 -20 1 -64 16
-97 34 -47 24 -59 25 -53 5z"/>
<path d="M3492 944 c-8 -13 -9 -24 -2 -24 6 0 2 -17 -9 -38 -35 -65 26 -95 66
-33 40 61 41 71 5 71 -16 0 -32 11 -37 24 -6 19 -11 19 -23 0z"/>
<path d="M4051 941 c10 -10 60 -24 109 -31 71 -10 82 -8 55 10 -19 12 -44 17
-54 11 -10 -7 -24 -3 -31 9 -7 11 -32 20 -55 20 -27 0 -36 -7 -24 -19z"/>
<path d="M7460 904 c0 -21 -18 -54 -41 -75 -34 -31 -36 -39 -11 -53 17 -10 25
-30 19 -47 -8 -21 3 -29 40 -29 58 0 78 -23 61 -68 -18 -46 -68 -40 -68 8 0
45 -21 51 -55 17 -18 -18 -15 -37 10 -80 36 -61 85 -76 85 -26 0 48 59 59 90
17 26 -36 28 -36 46 12 13 34 12 59 -3 78 -13 16 -20 45 -17 65 7 41 -17 48
-50 15 -16 -16 -34 -15 -67 3 -43 23 -44 26 -11 50 22 16 27 30 13 38 -37 23
-22 56 20 45 31 -8 40 -2 35 23 -9 49 -96 56 -96 7z"/>
<path d="M3861 872 c-26 -33 6 -122 38 -103 9 6 28 -3 41 -19 20 -24 18 -32
-8 -42 -35 -13 -45 -68 -12 -68 11 0 20 14 20 30 0 17 14 30 30 30 17 0 40 23
50 51 28 72 26 74 -30 37 -50 -32 -57 -27 -52 34 5 51 -48 85 -77 50z"/>
<path d="M7045 860 c-46 -73 -33 -130 20 -95 46 30 62 116 25 128 -11 4 -31
-11 -45 -33z"/>
<path d="M2440 826 c0 -19 11 -26 31 -18 17 6 26 3 20 -6 -6 -10 -3 -39 8 -65
14 -35 19 -38 20 -12 0 19 10 35 21 35 45 0 16 53 -40 74 -50 19 -60 18 -60
-8z"/>
<path d="M4071 842 c-6 -10 16 -28 49 -39 47 -16 60 -15 60 6 0 42 -87 68
-109 33z"/>
<path d="M5612 828 c-7 -17 -12 -46 -12 -64 0 -41 31 -9 49 51 15 51 -18 63
-37 13z"/>
<path d="M4775 818 c-43 -25 -46 -78 -5 -78 17 0 30 9 30 21 0 11 12 18 26 15
25 -6 34 6 34 44 0 25 -40 25 -85 -2z"/>
<path d="M8033 810 c-16 -41 4 -87 49 -111 21 -11 38 -38 38 -60 0 -25 14 -39
39 -39 64 0 63 -30 -2 -69 -60 -35 -61 -35 -48 5 15 47 -26 82 -50 43 -9 -15
-12 -34 -7 -42 5 -8 0 -20 -12 -27 -35 -22 -22 -63 28 -86 39 -17 51 -16 60 9
10 26 20 23 62 -16 57 -54 63 -77 20 -77 -23 0 -27 -13 -18 -50 10 -40 5 -50
-25 -50 -21 0 -49 -19 -64 -42 -36 -58 -15 -70 35 -20 23 23 56 42 72 42 17 0
30 14 30 30 0 17 11 31 25 32 14 2 34 5 45 7 11 3 36 6 56 8 28 2 33 13 23 46
-12 38 -8 41 42 28 49 -12 53 -10 30 18 -14 17 -34 25 -45 18 -13 -7 -15 4 -7
30 8 26 5 43 -8 43 -12 0 -32 23 -45 50 -12 28 -34 50 -49 50 -32 0 -119 83
-112 106 21 61 -139 184 -162 124z m294 -350 c50 0 58 -36 13 -60 -35 -18 -50
-12 -100 44 -76 83 -77 111 -2 57 32 -22 72 -41 89 -41z"/>
<path d="M2256 805 c-19 -4 -29 -20 -23 -35 10 -28 -59 -78 -79 -57 -7 6 -10
-12 -8 -41 4 -52 15 -57 74 -36 40 14 100 66 100 87 0 9 -16 17 -35 18 -33 0
-33 2 1 28 40 30 24 49 -30 36z"/>
<path d="M3585 719 c-3 -132 43 -125 51 8 4 68 -1 93 -22 93 -19 0 -28 -30
-29 -101z"/>
<path d="M5688 755 c-119 -92 -155 -155 -88 -155 23 0 40 13 40 31 0 22 12 28
37 20 34 -11 75 20 110 82 29 52 -40 68 -99 22z"/>
<path d="M3740 741 c0 -39 34 -74 53 -55 16 16 -13 94 -34 94 -11 0 -19 -17
-19 -39z"/>
<path d="M5351 753 c-20 -14 -56 -23 -81 -18 -44 9 -83 -58 -58 -99 17 -27 48
3 48 45 0 48 17 50 53 4 25 -33 29 -32 66 15 63 78 47 108 -28 53z"/>
<path d="M4551 742 c-6 -10 -4 -39 6 -63 l16 -45 33 46 c18 26 28 54 22 63
-14 23 -63 22 -77 -1z"/>
<path d="M4280 692 c0 -16 -5 -41 -10 -56 -7 -18 3 -27 30 -27 25 0 40 13 40
35 0 20 11 36 23 36 36 0 1 27 -44 34 -23 3 -39 -6 -39 -22z"/>
<path d="M4967 678 c7 -26 13 -59 13 -73 0 -45 40 -26 41 20 1 40 4 38 28 -15
20 -44 27 -50 26 -20 0 22 3 53 7 69 5 18 -8 30 -34 32 -24 2 -54 10 -68 19
-20 12 -23 4 -13 -32z"/>
<path d="M6860 697 c0 -31 69 -81 88 -62 21 20 13 68 -9 54 -11 -7 -34 -2 -50
12 -23 19 -29 18 -29 -4z"/>
<path d="M4772 662 c-25 -28 -28 -42 -11 -53 13 -8 30 -3 38 9 8 13 23 23 33
21 42 -8 51 3 28 31 -32 39 -47 38 -88 -8z"/>
<path d="M7117 682 c20 -12 21 -21 4 -31 -17 -11 -13 -22 11 -40 23 -17 27
-29 11 -39 -33 -21 -108 26 -95 60 6 16 -1 28 -17 28 -40 0 -28 -98 14 -112
19 -6 35 -24 35 -39 0 -16 14 -29 31 -29 17 0 26 -9 19 -20 -7 -11 -3 -20 9
-20 23 0 28 -59 9 -108 -13 -35 -108 -45 -108 -12 0 11 10 18 23 15 12 -3 26
5 30 17 5 12 -12 20 -37 18 -63 -6 -53 -81 19 -143 41 -36 49 -52 29 -64 -21
-13 -20 -22 5 -42 26 -22 31 -20 31 7 0 21 13 32 35 28 48 -8 60 83 16 116
-21 15 -26 29 -12 37 29 19 26 125 -4 138 -20 8 -19 14 2 29 50 35 -4 225 -64
224 -14 0 -12 -8 4 -18z"/>
<path d="M5460 650 c-14 -17 -42 -26 -61 -20 -20 7 -41 2 -49 -9 -22 -36 11
-101 51 -101 22 0 39 -13 39 -29 0 -26 -170 -28 -195 -3 -7 8 -105 -83 -105
-97 0 -4 34 1 75 10 48 11 78 10 82 -3 4 -11 19 -31 33 -44 21 -19 19 -28 -11
-44 -31 -17 -32 -25 -9 -57 26 -35 28 -35 49 5 32 61 59 51 51 -17 -6 -42 0
-56 18 -49 14 6 25 36 24 67 -1 31 -9 53 -17 48 -8 -5 -15 14 -15 42 0 60 15
64 53 16 23 -30 23 -25 4 32 -17 52 -17 71 3 83 23 14 25 39 15 160 -4 48 -4
48 -35 10z"/>
<path d="M2064 601 c-1 -36 9 -61 23 -61 31 0 31 104 1 114 -12 4 -23 -19 -24
-53z"/>
<path d="M2451 641 c-7 -10 -25 -14 -42 -8 -18 7 -29 -1 -29 -23 0 -21 11 -30
28 -24 15 6 47 -2 70 -19 24 -16 58 -26 77 -21 26 6 17 15 -32 34 -43 16 -58
31 -43 40 16 10 17 19 4 28 -12 7 -27 4 -33 -7z"/>
<path d="M3674 645 c-29 -51 -31 -122 -5 -132 39 -15 95 95 65 125 -26 26 -48
28 -60 7z"/>
<path d="M7935 645 c-35 -8 -48 -55 -20 -72 9 -5 33 3 54 19 44 32 22 66 -34
53z"/>
<path d="M3772 609 c-6 -18 2 -59 20 -92 37 -73 57 -65 28 12 -11 30 -16 62
-10 71 6 10 2 22 -8 29 -10 6 -23 -3 -30 -20z"/>
<path d="M6881 536 c-45 -73 -38 -96 30 -96 49 0 66 27 30 49 -10 6 -14 34 -9
61 12 67 -5 63 -51 -14z"/>
<path d="M4132 520 c21 -87 52 -106 119 -71 57 31 58 32 14 44 -25 6 -45 21
-45 32 0 11 -18 15 -39 9 -22 -5 -44 1 -50 13 -6 13 -5 1 1 -27z"/>
<path d="M7320 534 c1 -48 25 -114 42 -114 31 0 20 115 -12 127 -17 7 -30 1
-30 -13z"/>
<path d="M1929 519 c-20 -32 8 -50 35 -23 31 31 63 31 44 1 -9 -15 -5 -18 9
-9 13 8 18 23 12 33 -16 26 -84 24 -100 -2z"/>
<path d="M7640 530 c0 -25 93 -106 135 -119 54 -16 57 4 10 61 -32 39 -145 84
-145 58z"/>
<path d="M1196 493 c-22 -17 -30 -42 -23 -70 15 -55 28 -54 73 8 53 73 19 115
-50 62z"/>
<path d="M2444 460 c-24 -23 -53 -37 -64 -30 -11 7 -20 0 -20 -15 0 -16 14
-28 30 -28 17 0 30 8 30 19 0 10 23 13 50 6 52 -13 57 -6 33 54 -13 33 -17 33
-59 -6z"/>
<path d="M6688 471 c-16 -42 8 -71 46 -57 22 9 28 5 18 -11 -8 -13 -2 -23 16
-23 47 0 56 34 12 46 -27 7 -36 21 -28 42 8 21 1 32 -20 32 -19 0 -38 -13 -44
-29z"/>
<path d="M7507 470 c-6 -16 -18 -25 -27 -20 -8 5 -20 -9 -26 -31 -7 -26 -24
-39 -45 -35 -19 3 -39 -5 -44 -19 -10 -29 47 -34 65 -5 7 11 30 3 55 -20 69
-65 114 -42 65 33 -36 55 -27 61 20 15 17 -18 38 -27 45 -20 7 7 2 23 -11 36
-13 13 -24 40 -24 60 0 43 -57 48 -73 6z"/>
<path d="M4515 445 c-37 -8 -50 -65 -14 -65 11 0 38 17 60 37 39 36 27 43 -46
28z"/>
<path d="M1903 413 c-13 -15 -17 -32 -10 -39 7 -7 -9 -31 -35 -52 -47 -38 -47
-40 -10 -68 40 -30 29 -74 -19 -74 -16 0 -29 -14 -29 -31 0 -18 -10 -25 -22
-18 -13 9 -19 0 -15 -22 9 -46 57 -63 57 -20 0 42 53 62 88 32 20 -16 33 -16
41 -2 8 12 5 21 -5 21 -24 0 -72 150 -57 176 12 19 172 15 268 -7 66 -15 55
23 -18 60 -78 38 -77 38 -77 -2 0 -25 -12 -20 -49 20 -55 60 -76 65 -108 26z"/>
<path d="M5065 390 c-71 -37 -76 -50 -19 -46 29 3 58 17 64 33 15 39 8 40 -45
13z"/>
<path d="M2489 368 c-12 -5 -18 -63 -15 -138 3 -76 -3 -130 -14 -130 -11 0
-20 -9 -20 -20 0 -27 114 -26 131 1 7 12 -6 27 -29 33 -68 17 -49 51 21 35 43
-9 58 -7 48 9 -7 12 -31 22 -53 22 -48 0 -74 58 -37 80 21 14 22 23 1 48 -14
16 -20 40 -13 51 14 22 13 23 -20 9z"/>
<path d="M1150 320 c-60 -66 -6 -102 60 -40 27 26 50 54 50 63 0 33 -74 16
-110 -23z"/>
<path d="M6784 336 c-11 -11 -16 -32 -11 -46 5 -14 0 -32 -13 -40 -15 -9 -11
-23 14 -41 21 -17 26 -28 11 -28 -14 -1 -25 -19 -25 -40 0 -21 -15 -47 -32
-57 -22 -12 31 -22 165 -29 211 -12 275 6 159 44 -55 18 -89 19 -142 1 -69
-23 -110 -15 -110 21 0 11 14 19 30 19 36 0 39 23 6 56 -19 19 -19 29 0 48 32
32 30 89 -4 102 -15 6 -37 1 -48 -10z"/>
<path d="M7640 311 c0 -18 17 -31 41 -31 47 0 76 -57 40 -79 -17 -11 -12 -19
17 -26 49 -13 55 22 17 90 -14 25 -25 46 -25 48 0 1 -20 8 -45 16 -33 10 -45
6 -45 -18z"/>
<path d="M7916 304 c-20 -4 -29 -18 -23 -35 7 -19 27 -25 57 -17 25 6 52 1 59
-11 15 -24 51 -10 51 20 0 11 -22 19 -48 19 -27 0 -52 7 -55 16 -4 8 -22 12
-41 8z"/>
<path d="M650 280 c-7 -11 -40 -20 -73 -20 -40 0 -57 -9 -52 -25 5 -14 24 -22
42 -19 19 3 33 -7 33 -25 0 -17 9 -31 20 -31 11 0 20 21 20 47 0 57 91 53 107
-4 4 -18 9 -8 11 23 1 31 -6 51 -17 45 -10 -6 -24 -3 -31 9 -16 26 -44 26 -60
0z"/>
<path d="M2014 288 c-37 -38 -10 -83 65 -108 44 -14 96 -47 115 -73 20 -26 54
-47 76 -46 37 0 37 2 5 21 -19 11 -35 36 -35 57 0 56 -53 92 -90 61 -21 -17
-30 -18 -30 -2 0 12 -14 22 -31 22 -16 0 -37 18 -45 41 -9 22 -22 34 -30 27z"/>
<path d="M2404 276 c-35 -35 -29 -56 16 -56 27 0 40 13 40 40 0 45 -21 51 -56
16z"/>
<path d="M6547 276 c-30 -49 -28 -136 3 -136 22 0 30 22 30 80 0 83 -8 96 -33
56z"/>
<path d="M7498 255 c-2 -14 -2 -32 0 -40 1 -8 -7 -15 -18 -15 -11 0 -20 -13
-20 -30 0 -47 93 -38 106 10 6 22 2 35 -8 29 -10 -6 -18 7 -18 30 0 44 -38 58
-42 16z"/>
<path d="M1050 240 c-7 -11 -35 -20 -62 -20 -48 0 -49 -2 -19 -44 17 -25 31
-61 31 -80 0 -23 10 -31 30 -23 17 6 30 29 30 50 0 22 9 34 20 27 49 -30 75
40 28 76 -28 21 -50 26 -58 14z"/>
<path d="M8420 209 c-55 -54 -98 -62 -138 -24 -22 20 -25 19 -18 -5 5 -16 40
-39 78 -50 37 -11 87 -31 110 -44 37 -22 45 -17 75 47 57 118 -13 168 -107 76z"/>
<path d="M253 207 c-25 -26 -13 -78 25 -101 60 -38 101 20 52 74 -38 42 -55
48 -77 27z"/>
<path d="M878 216 c-21 -82 -16 -123 12 -87 16 21 30 45 30 54 0 14 -38 45
-42 33z"/>
<path d="M1689 202 c6 -10 -3 -23 -19 -29 -17 -7 -24 -25 -18 -42 18 -45 38
-38 65 20 30 65 29 69 -8 69 -17 0 -26 -8 -20 -18z"/>
<path d="M7955 208 c-7 -7 -7 -25 -1 -40 7 -20 1 -25 -22 -16 -17 7 -32 2 -32
-10 0 -29 97 -20 123 12 35 42 -29 93 -68 54z"/>
<path d="M6297 125 c-10 -26 -154 -46 -168 -24 -18 29 -49 22 -49 -11 0 -25
38 -30 220 -30 144 0 220 7 220 22 0 13 -22 16 -60 8 -40 -9 -60 -5 -60 11 0
13 -12 19 -28 13 -15 -6 -36 -2 -47 9 -12 12 -23 13 -28 2z"/>
<path d="M13 15 c-13 -8 2006 -12 4487 -10 2481 3 4114 7 3630 10 -2253 13
-8096 13 -8117 0z"/>
</g>
</svg>
